<svg width="305" height="124" viewBox="0 0 305 124" fill="none" xmlns="http://www.w3.org/2000/svg">
<path fill-rule="evenodd" clip-rule="evenodd" d="M2.98612 0H301.976C303.639 0 305 1.36056 305 2.98568V120.977C305 122.639 303.639 124 301.976 124H2.98612C1.36076 124 0 122.639 0 120.977V2.98568C0 1.36056 1.36076 0 2.98612 0Z" fill="#213D62"/>
<path d="M46.8892 35.1524C46.8892 34.7968 46.8334 34.4831 46.7219 34.2112C46.6173 33.9323 46.4291 33.6813 46.1572 33.4582C45.8922 33.2352 45.5227 33.0225 45.0487 32.8203C44.5816 32.6182 43.989 32.4125 43.2709 32.2033C42.518 31.9802 41.8382 31.7328 41.2317 31.4609C40.6251 31.182 40.1057 30.8648 39.6735 30.5092C39.2413 30.1537 38.9101 29.7458 38.68 29.2857C38.45 28.8256 38.3349 28.2992 38.3349 27.7066C38.3349 27.114 38.4569 26.5667 38.701 26.0648C38.945 25.5628 39.2935 25.1271 39.7467 24.7576C40.2068 24.3811 40.7541 24.0883 41.3885 23.8792C42.023 23.67 42.7306 23.5654 43.5114 23.5654C44.6548 23.5654 45.6238 23.785 46.4186 24.2243C47.2204 24.6565 47.8304 25.2247 48.2487 25.9288C48.667 26.626 48.8761 27.372 48.8761 28.1667H46.8683C46.8683 27.5951 46.7463 27.0896 46.5023 26.6504C46.2583 26.2042 45.8888 25.8556 45.3938 25.6046C44.8988 25.3467 44.2713 25.2177 43.5114 25.2177C42.7933 25.2177 42.2007 25.3258 41.7336 25.5419C41.2665 25.758 40.9179 26.0508 40.6879 26.4203C40.4648 26.7898 40.3532 27.2116 40.3532 27.6857C40.3532 28.0064 40.4195 28.2992 40.5519 28.5641C40.6914 28.8221 40.904 29.0626 41.1898 29.2857C41.4827 29.5088 41.8522 29.7145 42.2983 29.9027C42.7515 30.0909 43.2918 30.2722 43.9193 30.4465C44.7837 30.6905 45.5297 30.9624 46.1572 31.2622C46.7846 31.5619 47.3005 31.9001 47.7049 32.2765C48.1162 32.646 48.4195 33.0678 48.6147 33.5419C48.8169 34.009 48.918 34.5389 48.918 35.1314C48.918 35.7519 48.7925 36.3131 48.5415 36.8151C48.2905 37.3171 47.9315 37.7458 47.4644 38.1014C46.9973 38.4569 46.436 38.7323 45.7807 38.9275C45.1323 39.1158 44.4073 39.2099 43.6055 39.2099C42.9014 39.2099 42.2077 39.1123 41.5245 38.9171C40.8482 38.7219 40.2312 38.4291 39.6735 38.0386C39.1227 37.6482 38.68 37.1672 38.3454 36.5955C38.0177 36.0169 37.8539 35.3476 37.8539 34.5877H39.8617C39.8617 35.1105 39.9628 35.5602 40.165 35.9367C40.3672 36.3062 40.6426 36.6129 40.9912 36.8569C41.3467 37.1009 41.7476 37.2822 42.1938 37.4007C42.6469 37.5123 43.1175 37.5681 43.6055 37.5681C44.3097 37.5681 44.9058 37.4704 45.3938 37.2752C45.8818 37.08 46.2513 36.8012 46.5023 36.4386C46.7602 36.0761 46.8892 35.6474 46.8892 35.1524ZM55.8931 39.2099C55.1053 39.2099 54.3907 39.0774 53.7493 38.8125C53.1149 38.5406 52.5676 38.1606 52.1075 37.6726C51.6543 37.1846 51.3058 36.606 51.0617 35.9367C50.8177 35.2674 50.6957 34.5354 50.6957 33.7406V33.3014C50.6957 32.3811 50.8317 31.5619 51.1036 30.8439C51.3755 30.1188 51.745 29.5053 52.2121 29.0033C52.6792 28.5014 53.209 28.1214 53.8016 27.8635C54.3942 27.6055 55.0077 27.4765 55.6421 27.4765C56.4509 27.4765 57.148 27.616 57.7336 27.8948C58.3262 28.1737 58.8108 28.5641 59.1872 29.0661C59.5637 29.5611 59.8426 30.1467 60.0238 30.8229C60.2051 31.4922 60.2957 32.2243 60.2957 33.019V33.887H51.8461V32.3079H58.3611V32.1615C58.3332 31.6596 58.2286 31.1715 58.0474 30.6975C57.8731 30.2234 57.5942 29.833 57.2108 29.5262C56.8273 29.2195 56.3045 29.0661 55.6421 29.0661C55.2029 29.0661 54.7986 29.1602 54.4291 29.3484C54.0596 29.5297 53.7424 29.8016 53.4774 30.1641C53.2125 30.5267 53.0068 30.9694 52.8604 31.4922C52.714 32.0151 52.6408 32.6182 52.6408 33.3014V33.7406C52.6408 34.2774 52.714 34.7829 52.8604 35.2569C53.0138 35.724 53.2334 36.1354 53.5193 36.4909C53.8121 36.8465 54.1641 37.1253 54.5755 37.3275C54.9938 37.5297 55.4679 37.6308 55.9977 37.6308C56.6809 37.6308 57.2596 37.4914 57.7336 37.2125C58.2077 36.9336 58.6225 36.5606 58.9781 36.0935L60.1493 37.0243C59.9053 37.3938 59.5951 37.7458 59.2186 38.0805C58.8421 38.4151 58.3785 38.687 57.8278 38.8962C57.284 39.1053 56.6391 39.2099 55.8931 39.2099ZM67.0827 37.6203C67.5428 37.6203 67.9681 37.5262 68.3585 37.338C68.7489 37.1498 69.0696 36.8918 69.3206 36.5641C69.5716 36.2295 69.7145 35.8495 69.7493 35.4243H71.5899C71.555 36.0935 71.3284 36.7175 70.9101 37.2962C70.4988 37.8678 69.9585 38.3315 69.2892 38.687C68.6199 39.0356 67.8844 39.2099 67.0827 39.2099C66.2321 39.2099 65.4896 39.06 64.8552 38.7602C64.2278 38.4604 63.7049 38.0491 63.2866 37.5262C62.8753 37.0033 62.565 36.4038 62.3559 35.7275C62.1537 35.0443 62.0526 34.3227 62.0526 33.5628V33.1236C62.0526 32.3637 62.1537 31.6456 62.3559 30.9694C62.565 30.2861 62.8753 29.6831 63.2866 29.1602C63.7049 28.6373 64.2278 28.226 64.8552 27.9262C65.4896 27.6264 66.2321 27.4765 67.0827 27.4765C67.9681 27.4765 68.7419 27.6578 69.4042 28.0203C70.0666 28.3759 70.5859 28.8639 70.9624 29.4844C71.3459 30.0979 71.555 30.7951 71.5899 31.5759H69.7493C69.7145 31.1088 69.582 30.687 69.352 30.3105C69.1289 29.9341 68.8221 29.6343 68.4317 29.4112C68.0483 29.1811 67.5986 29.0661 67.0827 29.0661C66.4901 29.0661 65.9916 29.1846 65.5872 29.4216C65.1899 29.6517 64.8727 29.9654 64.6356 30.3628C64.4055 30.7532 64.2382 31.189 64.1337 31.67C64.036 32.1441 63.9872 32.6286 63.9872 33.1236V33.5628C63.9872 34.0578 64.036 34.5458 64.1337 35.0269C64.2313 35.5079 64.3951 35.9436 64.6252 36.3341C64.8622 36.7245 65.1794 37.0382 65.5768 37.2752C65.9811 37.5053 66.4831 37.6203 67.0827 37.6203ZM80.6879 36.3864V27.6857H82.633V39.0007H80.782L80.6879 36.3864ZM81.0539 34.002L81.8592 33.9811C81.8592 34.7341 81.779 35.4312 81.6186 36.0726C81.4653 36.707 81.2143 37.2578 80.8657 37.7249C80.5171 38.192 80.0605 38.558 79.4958 38.823C78.931 39.0809 78.2443 39.2099 77.4356 39.2099C76.8849 39.2099 76.3794 39.1297 75.9193 38.9694C75.4661 38.809 75.0757 38.5615 74.748 38.2269C74.4204 37.8922 74.1659 37.4565 73.9846 36.9197C73.8103 36.3829 73.7232 35.738 73.7232 34.985V27.6857H75.6578V35.006C75.6578 35.5149 75.7136 35.9367 75.8252 36.2713C75.9437 36.599 76.1005 36.8604 76.2958 37.0556C76.4979 37.2439 76.721 37.3763 76.965 37.453C77.216 37.5297 77.474 37.5681 77.7389 37.5681C78.5615 37.5681 79.2134 37.4112 79.6944 37.0975C80.1755 36.7768 80.5206 36.348 80.7297 35.8112C80.9459 35.2674 81.0539 34.6643 81.0539 34.002ZM87.5167 29.4635V39.0007H85.582V27.6857H87.4644L87.5167 29.4635ZM91.0513 27.6229L91.0409 29.4216C90.8805 29.3868 90.7271 29.3659 90.5807 29.3589C90.4413 29.345 90.2809 29.338 90.0997 29.338C89.6535 29.338 89.2596 29.4077 88.918 29.5471C88.5764 29.6866 88.287 29.8818 88.05 30.1328C87.813 30.3837 87.6247 30.6835 87.4853 31.0321C87.3528 31.3737 87.2657 31.7502 87.2239 32.1615L86.6801 32.4752C86.6801 31.792 86.7463 31.1506 86.8788 30.5511C87.0182 29.9515 87.2308 29.4216 87.5167 28.9615C87.8025 28.4944 88.165 28.1319 88.6043 27.8739C89.0504 27.609 89.5803 27.4765 90.1938 27.4765C90.3332 27.4765 90.4936 27.494 90.6748 27.5288C90.8561 27.5567 90.9816 27.5881 91.0513 27.6229ZM97.3258 39.2099C96.538 39.2099 95.8234 39.0774 95.182 38.8125C94.5476 38.5406 94.0003 38.1606 93.5402 37.6726C93.087 37.1846 92.7385 36.606 92.4945 35.9367C92.2504 35.2674 92.1284 34.5354 92.1284 33.7406V33.3014C92.1284 32.3811 92.2644 31.5619 92.5363 30.8439C92.8082 30.1188 93.1777 29.5053 93.6448 29.0033C94.1119 28.5014 94.6417 28.1214 95.2343 27.8635C95.8269 27.6055 96.4404 27.4765 97.0748 27.4765C97.8836 27.4765 98.5807 27.616 99.1664 27.8948C99.7589 28.1737 100.243 28.5641 100.62 29.0661C100.996 29.5611 101.275 30.1467 101.457 30.8229C101.638 31.4922 101.728 32.2243 101.728 33.019V33.887H93.2788V32.3079H99.7938V32.1615C99.7659 31.6596 99.6613 31.1715 99.4801 30.6975C99.3058 30.2234 99.0269 29.833 98.6435 29.5262C98.26 29.2195 97.7372 29.0661 97.0748 29.0661C96.6356 29.0661 96.2313 29.1602 95.8618 29.3484C95.4923 29.5297 95.1751 29.8016 94.9101 30.1641C94.6452 30.5267 94.4396 30.9694 94.2931 31.4922C94.1467 32.0151 94.0735 32.6182 94.0735 33.3014V33.7406C94.0735 34.2774 94.1467 34.7829 94.2931 35.2569C94.4465 35.724 94.6661 36.1354 94.952 36.4909C95.2448 36.8465 95.5969 37.1253 96.0082 37.3275C96.4265 37.5297 96.9006 37.6308 97.4304 37.6308C98.1136 37.6308 98.6923 37.4914 99.1664 37.2125C99.6404 36.9336 100.055 36.5606 100.411 36.0935L101.582 37.0243C101.338 37.3938 101.028 37.7458 100.651 38.0805C100.275 38.4151 99.8112 38.687 99.2605 38.8962C98.7167 39.1053 98.0718 39.2099 97.3258 39.2099ZM111.234 29.8609V43.3511H109.289V27.6857H111.067L111.234 29.8609ZM118.858 33.2491V33.4687C118.858 34.2914 118.76 35.0548 118.565 35.7589C118.37 36.4561 118.084 37.0626 117.708 37.5785C117.338 38.0944 116.881 38.4953 116.338 38.7811C115.794 39.067 115.17 39.2099 114.466 39.2099C113.748 39.2099 113.113 39.0914 112.562 38.8543C112.012 38.6173 111.545 38.2722 111.161 37.819C110.778 37.3659 110.471 36.8221 110.241 36.1877C110.018 35.5532 109.864 34.8386 109.781 34.0439V32.8726C109.864 32.036 110.021 31.2866 110.251 30.6243C110.481 29.9619 110.785 29.3972 111.161 28.9301C111.545 28.4561 112.008 28.097 112.552 27.853C113.096 27.602 113.723 27.4765 114.434 27.4765C115.145 27.4765 115.776 27.616 116.327 27.8948C116.878 28.1667 117.342 28.5572 117.718 29.0661C118.094 29.575 118.377 30.185 118.565 30.8962C118.76 31.6003 118.858 32.3846 118.858 33.2491ZM116.913 33.4687V33.2491C116.913 32.6844 116.854 32.1545 116.735 31.6596C116.616 31.1576 116.432 30.7184 116.181 30.3419C115.937 29.9585 115.623 29.6587 115.24 29.4426C114.856 29.2195 114.399 29.1079 113.87 29.1079C113.382 29.1079 112.956 29.1916 112.594 29.3589C112.238 29.5262 111.935 29.7528 111.684 30.0386C111.433 30.3175 111.227 30.6382 111.067 31.0007C110.914 31.3563 110.799 31.7258 110.722 32.1092V34.8177C110.861 35.3057 111.057 35.7659 111.308 36.1981C111.559 36.6234 111.893 36.9685 112.311 37.2334C112.73 37.4914 113.256 37.6203 113.891 37.6203C114.413 37.6203 114.863 37.5123 115.24 37.2962C115.623 37.0731 115.937 36.7698 116.181 36.3864C116.432 36.0029 116.616 35.5637 116.735 35.0687C116.854 34.5667 116.913 34.0334 116.913 33.4687ZM127.998 37.0661V31.2413C127.998 30.7951 127.907 30.4081 127.726 30.0805C127.552 29.7458 127.287 29.4879 126.931 29.3066C126.576 29.1253 126.136 29.0347 125.613 29.0347C125.125 29.0347 124.697 29.1184 124.327 29.2857C123.965 29.453 123.679 29.6726 123.47 29.9445C123.267 30.2164 123.166 30.5092 123.166 30.8229H121.232C121.232 30.4186 121.336 30.0177 121.545 29.6203C121.755 29.2229 122.054 28.8639 122.445 28.5432C122.842 28.2155 123.316 27.9576 123.867 27.7694C124.425 27.5741 125.045 27.4765 125.728 27.4765C126.551 27.4765 127.276 27.616 127.904 27.8948C128.538 28.1737 129.033 28.5955 129.389 29.1602C129.751 29.7179 129.932 30.4186 129.932 31.2622V36.5328C129.932 36.9092 129.964 37.3101 130.027 37.7354C130.096 38.1606 130.197 38.5267 130.33 38.8334V39.0007H128.311C128.214 38.7776 128.137 38.4813 128.081 38.1118C128.026 37.7354 127.998 37.3868 127.998 37.0661ZM128.332 32.1406L128.353 33.5001H126.398C125.847 33.5001 125.355 33.5454 124.923 33.636C124.491 33.7197 124.128 33.8487 123.836 34.023C123.543 34.1972 123.32 34.4169 123.166 34.6818C123.013 34.9397 122.936 35.243 122.936 35.5916C122.936 35.9471 123.016 36.2713 123.177 36.5641C123.337 36.8569 123.578 37.0905 123.898 37.2648C124.226 37.4321 124.627 37.5158 125.101 37.5158C125.694 37.5158 126.216 37.3903 126.67 37.1393C127.123 36.8883 127.482 36.5816 127.747 36.219C128.019 35.8565 128.165 35.5044 128.186 35.1628L129.012 36.0935C128.963 36.3864 128.831 36.7105 128.615 37.0661C128.399 37.4216 128.109 37.7633 127.747 38.0909C127.391 38.4116 126.966 38.68 126.471 38.8962C125.983 39.1053 125.432 39.2099 124.819 39.2099C124.052 39.2099 123.379 39.06 122.8 38.7602C122.229 38.4604 121.782 38.0596 121.462 37.5576C121.148 37.0487 120.991 36.4805 120.991 35.853C120.991 35.2465 121.11 34.7131 121.347 34.253C121.584 33.7859 121.925 33.399 122.372 33.0922C122.818 32.7785 123.355 32.5415 123.982 32.3811C124.61 32.2208 125.31 32.1406 126.084 32.1406H128.332ZM135.987 37.8295L139.135 27.6857H141.206L136.667 40.7471C136.562 41.026 136.423 41.3258 136.249 41.6465C136.081 41.9742 135.865 42.2844 135.6 42.5772C135.335 42.87 135.015 43.1071 134.638 43.2883C134.269 43.4766 133.826 43.5707 133.31 43.5707C133.157 43.5707 132.962 43.5498 132.725 43.5079C132.488 43.4661 132.32 43.4312 132.223 43.4033L132.212 41.8347C132.268 41.8417 132.355 41.8487 132.474 41.8556C132.599 41.8696 132.686 41.8766 132.735 41.8766C133.174 41.8766 133.547 41.8173 133.854 41.6988C134.161 41.5872 134.419 41.3955 134.628 41.1236C134.844 40.8587 135.029 40.4927 135.182 40.0256L135.987 37.8295ZM133.676 27.6857L136.615 36.47L137.117 38.5092L135.726 39.2203L131.564 27.6857H133.676ZM144.876 29.9341V39.0007H142.931V27.6857H144.772L144.876 29.9341ZM144.479 32.9145L143.579 32.8831C143.586 32.1092 143.688 31.3946 143.883 30.7393C144.078 30.077 144.367 29.5018 144.751 29.0138C145.134 28.5258 145.612 28.1493 146.183 27.8844C146.755 27.6125 147.417 27.4765 148.17 27.4765C148.7 27.4765 149.188 27.5532 149.634 27.7066C150.081 27.853 150.467 28.0866 150.795 28.4073C151.123 28.728 151.377 29.1393 151.559 29.6412C151.74 30.1432 151.83 30.7497 151.83 31.4609V39.0007H149.896V31.555C149.896 30.9624 149.795 30.4883 149.593 30.1328C149.397 29.7772 149.118 29.5192 148.756 29.3589C148.393 29.1916 147.968 29.1079 147.48 29.1079C146.908 29.1079 146.431 29.209 146.047 29.4112C145.664 29.6134 145.357 29.8922 145.127 30.2478C144.897 30.6033 144.73 31.0112 144.625 31.4713C144.528 31.9245 144.479 32.4055 144.479 32.9145ZM151.81 31.8478L150.513 32.2452C150.52 31.6247 150.621 31.0286 150.816 30.4569C151.018 29.8853 151.308 29.3763 151.684 28.9301C152.067 28.4839 152.538 28.1319 153.096 27.8739C153.654 27.609 154.291 27.4765 155.01 27.4765C155.616 27.4765 156.153 27.5567 156.62 27.7171C157.094 27.8774 157.491 28.1249 157.812 28.4595C158.14 28.7872 158.387 29.209 158.555 29.7249C158.722 30.2408 158.806 30.8543 158.806 31.5654V39.0007H156.861V31.5445C156.861 30.9101 156.759 30.4186 156.557 30.07C156.362 29.7145 156.083 29.467 155.721 29.3275C155.365 29.1811 154.94 29.1079 154.445 29.1079C154.02 29.1079 153.643 29.1811 153.315 29.3275C152.988 29.4739 152.712 29.6761 152.489 29.9341C152.266 30.185 152.095 30.4744 151.977 30.802C151.865 31.1297 151.81 31.4783 151.81 31.8478ZM166.429 39.2099C165.641 39.2099 164.927 39.0774 164.285 38.8125C163.651 38.5406 163.104 38.1606 162.644 37.6726C162.19 37.1846 161.842 36.606 161.598 35.9367C161.354 35.2674 161.232 34.5354 161.232 33.7406V33.3014C161.232 32.3811 161.368 31.5619 161.64 30.8439C161.911 30.1188 162.281 29.5053 162.748 29.0033C163.215 28.5014 163.745 28.1214 164.338 27.8635C164.93 27.6055 165.544 27.4765 166.178 27.4765C166.987 27.4765 167.684 27.616 168.27 27.8948C168.862 28.1737 169.347 28.5641 169.723 29.0661C170.1 29.5611 170.379 30.1467 170.56 30.8229C170.741 31.4922 170.832 32.2243 170.832 33.019V33.887H162.382V32.3079H168.897V32.1615C168.869 31.6596 168.765 31.1715 168.583 30.6975C168.409 30.2234 168.13 29.833 167.747 29.5262C167.363 29.2195 166.84 29.0661 166.178 29.0661C165.739 29.0661 165.335 29.1602 164.965 29.3484C164.596 29.5297 164.278 29.8016 164.013 30.1641C163.749 30.5267 163.543 30.9694 163.396 31.4922C163.25 32.0151 163.177 32.6182 163.177 33.3014V33.7406C163.177 34.2774 163.25 34.7829 163.396 35.2569C163.55 35.724 163.769 36.1354 164.055 36.4909C164.348 36.8465 164.7 37.1253 165.111 37.3275C165.53 37.5297 166.004 37.6308 166.534 37.6308C167.217 37.6308 167.796 37.4914 168.27 37.2125C168.744 36.9336 169.159 36.5606 169.514 36.0935L170.685 37.0243C170.441 37.3938 170.131 37.7458 169.755 38.0805C169.378 38.4151 168.915 38.687 168.364 38.8962C167.82 39.1053 167.175 39.2099 166.429 39.2099ZM175.025 30.1014V39.0007H173.091V27.6857H174.921L175.025 30.1014ZM174.565 32.9145L173.76 32.8831C173.767 32.1092 173.882 31.3946 174.105 30.7393C174.328 30.077 174.642 29.5018 175.046 29.0138C175.45 28.5258 175.932 28.1493 176.489 27.8844C177.054 27.6125 177.678 27.4765 178.361 27.4765C178.919 27.4765 179.421 27.5532 179.867 27.7066C180.313 27.853 180.693 28.09 181.007 28.4177C181.328 28.7454 181.572 29.1707 181.739 29.6935C181.906 30.2094 181.99 30.8404 181.99 31.5863V39.0007H180.045V31.5654C180.045 30.9728 179.958 30.4988 179.783 30.1432C179.609 29.7807 179.355 29.5192 179.02 29.3589C178.685 29.1916 178.274 29.1079 177.786 29.1079C177.305 29.1079 176.866 29.209 176.468 29.4112C176.078 29.6134 175.74 29.8922 175.454 30.2478C175.175 30.6033 174.956 31.0112 174.795 31.4713C174.642 31.9245 174.565 32.4055 174.565 32.9145ZM189.666 27.6857V29.1707H183.548V27.6857H189.666ZM185.619 24.9354H187.553V36.1981C187.553 36.5816 187.613 36.8709 187.731 37.0661C187.85 37.2613 188.003 37.3903 188.191 37.453C188.379 37.5158 188.582 37.5471 188.798 37.5471C188.958 37.5471 189.125 37.5332 189.3 37.5053C189.481 37.4704 189.617 37.4426 189.708 37.4216L189.718 39.0007C189.565 39.0495 189.362 39.0949 189.112 39.1367C188.868 39.1855 188.571 39.2099 188.223 39.2099C187.749 39.2099 187.313 39.1158 186.915 38.9275C186.518 38.7393 186.201 38.4256 185.964 37.9864C185.734 37.5402 185.619 36.9406 185.619 36.1877V24.9354ZM198.523 35.9994C198.523 35.7206 198.461 35.4626 198.335 35.2256C198.217 34.9816 197.969 34.7619 197.593 34.5667C197.223 34.3646 196.665 34.1903 195.919 34.0439C195.292 33.9114 194.724 33.7545 194.215 33.5733C193.713 33.392 193.284 33.1724 192.929 32.9145C192.58 32.6565 192.312 32.3532 192.123 32.0046C191.935 31.6561 191.841 31.2482 191.841 30.7811C191.841 30.3349 191.939 29.9131 192.134 29.5158C192.336 29.1184 192.618 28.7663 192.981 28.4595C193.35 28.1528 193.793 27.9123 194.309 27.738C194.825 27.5637 195.4 27.4765 196.034 27.4765C196.941 27.4765 197.715 27.6369 198.356 27.9576C198.997 28.2783 199.489 28.707 199.83 29.2439C200.172 29.7737 200.343 30.3628 200.343 31.0112H198.408C198.408 30.6975 198.314 30.3942 198.126 30.1014C197.945 29.8016 197.676 29.5541 197.321 29.3589C196.972 29.1637 196.543 29.0661 196.034 29.0661C195.498 29.0661 195.062 29.1497 194.727 29.3171C194.4 29.4774 194.159 29.6831 194.006 29.9341C193.859 30.185 193.786 30.45 193.786 30.7288C193.786 30.938 193.821 31.1262 193.891 31.2935C193.967 31.4539 194.1 31.6038 194.288 31.7432C194.476 31.8757 194.741 32.0012 195.083 32.1197C195.424 32.2382 195.86 32.3567 196.39 32.4752C197.317 32.6844 198.081 32.9354 198.68 33.2282C199.28 33.521 199.726 33.88 200.019 34.3053C200.312 34.7306 200.458 35.2465 200.458 35.853C200.458 36.348 200.353 36.8012 200.144 37.2125C199.942 37.6238 199.646 37.9794 199.255 38.2792C198.872 38.572 198.412 38.802 197.875 38.9694C197.345 39.1297 196.749 39.2099 196.087 39.2099C195.09 39.2099 194.246 39.0321 193.556 38.6765C192.866 38.321 192.343 37.8609 191.987 37.2962C191.632 36.7314 191.454 36.1354 191.454 35.5079H193.399C193.427 36.0378 193.58 36.4596 193.859 36.7733C194.138 37.08 194.48 37.2996 194.884 37.4321C195.288 37.5576 195.689 37.6203 196.087 37.6203C196.617 37.6203 197.059 37.5506 197.415 37.4112C197.777 37.2718 198.053 37.08 198.241 36.836C198.429 36.592 198.523 36.3131 198.523 35.9994ZM208.301 22.938H210.246V36.8047L210.079 39.0007H208.301V22.938ZM217.891 33.2491V33.4687C217.891 34.2914 217.793 35.0548 217.598 35.7589C217.403 36.4561 217.117 37.0626 216.74 37.5785C216.364 38.0944 215.904 38.4953 215.36 38.7811C214.816 39.067 214.192 39.2099 213.488 39.2099C212.77 39.2099 212.139 39.0879 211.595 38.8439C211.058 38.5929 210.605 38.2338 210.236 37.7667C209.866 37.2996 209.57 36.7349 209.347 36.0726C209.131 35.4103 208.981 34.6643 208.897 33.8347V32.8726C208.981 32.036 209.131 31.2866 209.347 30.6243C209.57 29.9619 209.866 29.3972 210.236 28.9301C210.605 28.4561 211.058 28.097 211.595 27.853C212.132 27.602 212.756 27.4765 213.467 27.4765C214.178 27.4765 214.809 27.616 215.36 27.8948C215.911 28.1667 216.371 28.5572 216.74 29.0661C217.117 29.575 217.403 30.185 217.598 30.8962C217.793 31.6003 217.891 32.3846 217.891 33.2491ZM215.946 33.4687V33.2491C215.946 32.6844 215.893 32.1545 215.789 31.6596C215.684 31.1576 215.517 30.7184 215.287 30.3419C215.057 29.9585 214.753 29.6587 214.377 29.4426C214 29.2195 213.537 29.1079 212.986 29.1079C212.498 29.1079 212.073 29.1916 211.71 29.3589C211.355 29.5262 211.051 29.7528 210.8 30.0386C210.549 30.3175 210.344 30.6382 210.183 31.0007C210.03 31.3563 209.915 31.7258 209.838 32.1092V34.6295C209.95 35.1175 210.131 35.5881 210.382 36.0413C210.64 36.4874 210.982 36.8535 211.407 37.1393C211.839 37.4251 212.373 37.5681 213.007 37.5681C213.53 37.5681 213.976 37.4635 214.346 37.2543C214.722 37.0382 215.025 36.7419 215.255 36.3654C215.492 35.989 215.667 35.5532 215.778 35.0582C215.89 34.5633 215.946 34.0334 215.946 33.4687ZM223.391 37.8295L226.539 27.6857H228.61L224.071 40.7471C223.966 41.026 223.827 41.3258 223.653 41.6465C223.485 41.9742 223.269 42.2844 223.004 42.5772C222.739 42.87 222.419 43.1071 222.042 43.2883C221.673 43.4766 221.23 43.5707 220.714 43.5707C220.561 43.5707 220.366 43.5498 220.129 43.5079C219.891 43.4661 219.724 43.4312 219.627 43.4033L219.616 41.8347C219.672 41.8417 219.759 41.8487 219.878 41.8556C220.003 41.8696 220.09 41.8766 220.139 41.8766C220.578 41.8766 220.951 41.8173 221.258 41.6988C221.565 41.5872 221.823 41.3955 222.032 41.1236C222.248 40.8587 222.433 40.4927 222.586 40.0256L223.391 37.8295ZM221.08 27.6857L224.019 36.47L224.521 38.5092L223.13 39.2203L218.968 27.6857H221.08Z" fill="#BFCAD9"/>
<path d="M88.0879 70.5847L88.8439 70.8115L88.7305 71.6807C88.5037 72.4365 88.5037 73.1923 88.4281 74.0616C88.3147 75.1197 88.2013 76.2157 87.9745 77.1983L92.2836 78.8989L109.558 67.259L89.5999 67.4858L87.4453 70.3958C87.6721 70.3958 87.8611 70.5091 88.0879 70.5847Z" fill="#FEFEFE"/>
<path d="M81.6242 68.5433L81.851 68.4299L82.1534 68.5433C83.0228 68.8834 84.0056 69.1858 84.8371 69.5259C84.9505 69.5259 84.9505 69.5259 85.0639 69.5259L87.9745 66.1624L83.6654 47.1909L75.9922 66.1624L78.3735 69.5259C79.3563 69.1858 80.5281 68.8834 81.6242 68.5433Z" fill="#FEFEFE"/>
<path d="M74.0642 77.1983C73.9508 76.2157 74.0642 75.2331 74.1776 74.2505C74.291 73.3057 74.291 72.4365 74.291 71.6807V70.8115L75.1604 70.5091C75.3494 70.5091 75.5762 70.3958 75.8029 70.3958L74.0642 67.4858L54.2197 67.259L69.4149 78.8989L74.0642 77.1983Z" fill="#FEFEFE"/>
<path d="M65.3326 102.407H63.7075L63.8209 100.706H65.5215L65.3326 102.407Z" fill="#3BB0C8"/>
<path d="M61.0231 104.901H59.2847L59.398 103.276H61.0987L61.0231 104.901Z" fill="#3BB0C8"/>
<path d="M67.4873 95.1884H69.2257L69.3013 93.4878H67.7141L67.4873 95.1884Z" fill="#3BB0C8"/>
<path d="M69.1128 96.4733H70.8134L70.9268 94.7727H69.2262L69.1128 96.4733Z" fill="#3BB0C8"/>
<path d="M65.7485 97.9096H67.487L67.6003 96.1711H65.8619L65.7485 97.9096Z" fill="#3BB0C8"/>
<path d="M62.1953 99.3079H63.9337L64.0471 97.6829H62.4221L62.1953 99.3079Z" fill="#3BB0C8"/>
<path d="M72.1366 89.7079L72.2122 88.0828H73.8375L73.7241 89.7079H72.1366ZM64.8791 94.772H66.6179L66.7313 93.0336H68.4701L68.5456 91.4085H70.2844L70.0576 93.0336H71.7964L71.9098 91.4085H73.6485H75.2361L75.4629 89.7079H77.0882L77.2016 89.2544L77.315 88.0828H78.9026V87.9695L79.1294 84.8328C77.504 83.6612 75.992 82.3763 74.9337 80.6379C74.8203 80.2977 74.5935 79.9954 74.4801 79.6553L69.8686 80.9402L63.3672 96.4726H64.7657L64.8791 94.772Z" fill="#3BB0C8"/>
<path d="M87.0297 79.4285C86.8029 79.7686 86.5762 80.1087 86.3494 80.4111C85.0642 82.1495 83.3254 83.4344 81.5111 84.6059L81.1709 87.7427L96.0637 99.4959L91.4522 80.7512L87.0297 79.4285Z" fill="#FEFEFE"/>
<path fill-rule="evenodd" clip-rule="evenodd" d="M121.956 88.7258C122.409 85.8157 123.279 81.1671 124.564 74.9312C124.451 80.4113 124.451 84.9465 124.451 88.7258H121.956ZM130.045 67.5615H119.612L113.338 67.6749V68.015C115.606 68.5442 117.533 69.4134 119.045 70.585L113.111 100.366H120.557L121.54 94.546H124.11L124.035 100.366H131.368L130.045 67.5615Z" fill="#FEFEFE"/>
<path fill-rule="evenodd" clip-rule="evenodd" d="M142.896 67.5615L140.628 93.7901H144.937L144.408 100.366H132.766L135.677 67.5615H142.896Z" fill="#FEFEFE"/>
<path fill-rule="evenodd" clip-rule="evenodd" d="M156.504 67.5615L154.236 93.7901H158.658L158.016 100.366H146.449L149.284 67.5615H156.504Z" fill="#FEFEFE"/>
<path fill-rule="evenodd" clip-rule="evenodd" d="M177.104 77.6145H170.414L170.64 75.1201C170.754 74.0619 170.754 73.306 170.527 72.9659C170.414 72.6635 170.111 72.5502 169.771 72.5502C169.355 72.5502 168.902 72.7391 168.675 73.1926C168.486 73.495 168.259 74.1753 168.146 75.0067C168.146 76.1027 168.146 76.972 168.373 77.5011C168.599 78.0302 169.242 78.6727 170.187 79.4285C173.211 81.6961 175.063 83.6614 175.819 85.0598C176.575 86.4581 176.802 88.8391 176.462 92.0515C176.235 94.3191 175.932 96.0576 175.29 97.1536C174.723 98.3252 173.778 99.1945 172.341 99.9503C170.943 100.706 169.431 101.122 167.617 101.122C165.689 101.122 164.063 100.706 162.74 99.837C161.455 98.9677 160.699 97.7961 160.397 96.4734C160.057 95.1884 160.057 93.2609 160.284 90.7666L160.473 88.6123H167.163L166.861 92.6184C166.747 93.9034 166.747 94.6593 166.861 94.9994C167.087 95.4151 167.39 95.5285 167.843 95.5285C168.373 95.5285 168.675 95.3018 169.015 94.886C169.242 94.4325 169.431 93.79 169.544 92.9208C169.658 90.9933 169.544 89.7083 169.242 89.1414C168.788 88.499 167.73 87.5541 166.105 86.118C164.366 84.7196 163.307 83.7748 162.74 83.1323C162.211 82.452 161.796 81.6206 161.569 80.4112C161.229 79.353 161.153 77.9168 161.342 76.2161C161.569 73.6084 161.985 71.7943 162.665 70.6983C163.307 69.5267 164.252 68.5441 165.462 67.9016C166.747 67.2591 168.259 66.9189 169.998 66.9189C171.812 66.9189 173.438 67.3725 174.723 68.015C175.932 68.7708 176.802 69.6401 177.104 70.6983C177.444 71.7943 177.444 73.6084 177.217 76.3295L177.104 77.6145Z" fill="#FEFEFE"/>
<path fill-rule="evenodd" clip-rule="evenodd" d="M181.111 67.5615H193.169L192.526 74.1754H187.801L187.234 80.4113H191.657L191.127 86.685H186.705L186.062 93.7901H191.354L190.825 100.366H178.2L181.111 67.5615Z" fill="#FEFEFE"/>
<path fill-rule="evenodd" clip-rule="evenodd" d="M211.652 81.9229H204.282L204.849 76.2161C204.962 74.591 204.962 73.495 204.849 73.0793C204.735 72.7391 204.395 72.5502 203.866 72.5502C203.337 72.5502 202.883 72.7391 202.694 73.306C202.581 73.7217 202.354 74.8178 202.241 76.5185L200.842 91.7492C200.729 93.2609 200.729 94.3191 200.842 94.7726C200.955 95.3018 201.296 95.5285 201.825 95.5285C202.354 95.5285 202.77 95.3018 202.997 94.7726C203.11 94.3191 203.337 93.1475 203.526 91.409L203.866 87.214H211.085L210.972 88.499C210.67 91.9759 210.33 94.3191 209.8 95.7175C209.271 97.1536 208.175 98.4386 206.776 99.4968C205.264 100.593 203.45 101.122 201.485 101.122C199.33 101.122 197.591 100.593 196.306 99.7236C195.021 98.8543 194.265 97.5694 193.925 95.9442C193.622 94.3191 193.622 91.9759 193.849 88.7257L194.681 79.2396C194.908 76.8586 195.134 75.0067 195.361 73.9485C195.664 72.7391 196.079 71.5675 196.949 70.5093C197.705 69.4133 198.687 68.5441 199.973 67.9016C201.296 67.2591 202.694 66.9189 204.206 66.9189C206.361 66.9189 208.062 67.4858 209.385 68.4307C210.67 69.4133 211.539 70.5849 211.728 71.9833C212.068 73.495 212.182 75.7626 211.841 78.7861L211.652 81.9229Z" fill="#FEFEFE"/>
<path fill-rule="evenodd" clip-rule="evenodd" d="M232.102 67.5615L230.174 89.4817C229.947 91.976 229.72 93.7901 229.494 94.7727C229.305 95.7176 228.738 96.8136 227.982 97.9096C227.226 98.8544 226.281 99.7237 225.071 100.253C224.013 100.82 222.614 101.122 221.102 101.122C219.477 101.122 218.116 100.82 216.831 100.177C215.621 99.4969 214.752 98.6655 214.223 97.5694C213.694 96.5868 213.354 95.4152 213.354 94.3192C213.354 93.1476 213.58 90.6533 213.883 86.9873L215.508 67.5615H222.803L220.687 92.165C220.573 93.5634 220.498 94.546 220.573 94.9995C220.687 95.3018 220.913 95.5286 221.329 95.5286C221.783 95.5286 222.085 95.3018 222.312 94.8861C222.425 94.4326 222.652 93.3744 222.765 91.7493L224.882 67.5615H232.102Z" fill="#FEFEFE"/>
<path fill-rule="evenodd" clip-rule="evenodd" d="M235.125 67.5615H240.19C243.63 67.5615 245.898 67.7883 247.108 68.1284C248.279 68.4308 249.262 69.1866 249.905 70.5094C250.547 71.7944 250.774 73.7218 250.434 76.5185C250.207 79.1263 249.791 80.8648 249.262 81.6962C248.62 82.5655 247.523 83.1324 245.898 83.3214C247.297 83.6615 248.166 84.304 248.62 84.9465C249.035 85.7023 249.376 86.3448 249.376 86.8739C249.451 87.4408 249.376 89.0659 249.149 91.7493L248.393 100.366H241.702L242.685 89.4817C242.799 87.7432 242.799 86.685 242.572 86.2314C242.345 85.8157 241.816 85.589 240.833 85.589L239.548 100.366H232.215L235.125 67.5615ZM241.929 73.1927L241.287 80.5246C242.043 80.5246 242.572 80.4113 242.988 80.1089C243.328 79.8822 243.517 79.0129 243.63 77.5012L243.857 75.7627C243.97 74.7045 243.857 74.062 243.517 73.7218C243.214 73.4195 242.685 73.1927 241.929 73.1927Z" fill="#FEFEFE"/>
<path fill-rule="evenodd" clip-rule="evenodd" d="M254.214 67.5615H266.31L265.781 74.1754H260.905L260.375 80.4113H264.911L264.344 86.685H259.846L259.166 93.7901H264.571L263.928 100.366H251.417L254.214 67.5615Z" fill="#FEFEFE"/>
</svg>
