<?xml version="1.0" encoding="UTF-8"?>
<!DOCTYPE svg PUBLIC "-//W3C//DTD SVG 1.1//EN" "http://www.w3.org/Graphics/SVG/1.1/DTD/svg11.dtd">
<!-- Creator: CorelDRAW X8 -->
<svg xmlns="http://www.w3.org/2000/svg" xml:space="preserve" width="1803px" height="1035px" version="1.1" style="shape-rendering:geometricPrecision; text-rendering:geometricPrecision; image-rendering:optimizeQuality; fill-rule:evenodd; clip-rule:evenodd"
viewBox="0 0 2308 1325"
 xmlns:xlink="http://www.w3.org/1999/xlink">
 <defs>
  <style type="text/css">
   <![CDATA[
    .str0 {stroke:#E0E0E0;stroke-width:30.4449}
    .fil6 {fill:black}
    .fil2 {fill:#00A2E5}
    .fil4 {fill:#231F20}
    .fil3 {fill:#7375CF}
    .fil1 {fill:#EB001B}
    .fil5 {fill:#F79E1B}
    .fil0 {fill:white}
   ]]>
  </style>
 </defs>
 <g id="Layer_x0020_1">
  <metadata id="CorelCorpID_0Corel-Layer"/>
  <g id="_2287156183552">
   <path class="fil0 str0" d="M65 15l2179 0c27,0 49,22 49,49l0 1196c0,28 -22,50 -49,50l-2179 0c-27,0 -50,-22 -50,-50l0 -1196c0,-27 23,-49 50,-49z"/>
   <circle class="fil1" cx="919" cy="551" r="398"/>
   <circle class="fil2" cx="1374" cy="551" r="398"/>
   <path class="fil3" d="M1317 551c0,-137 -69,-256 -171,-324 -102,73 -170,192 -170,324 0,130 68,255 170,324 102,-69 171,-188 171,-324z"/>
   <path class="fil4" d="M1491 1048c4,0 11,0 16,2l-7 22c-5,-2 -10,-2 -14,-2 -16,0 -24,10 -24,28l0 61 -24 0 0 -109 23 0 0 13c6,-9 15,-15 30,-15l0 0zm-89 24l-39 0 0 50c0,10 4,18 16,18 6,0 14,-3 21,-6l7 20c-8,5 -20,8 -29,8 -29,0 -39,-15 -39,-40l0 -50 -22 0 0 -22 22 0 0 -33 24 0 0 33 39 0 0 22zm-305 23c3,-16 12,-26 29,-26 16,0 26,9 28,26l-57 0 0 0zm82 10c-1,-35 -21,-57 -52,-57 -33,0 -55,22 -55,57 0,35 24,57 56,57 17,0 32,-4 45,-15l-11 -18c-10,8 -22,11 -32,11 -16,0 -30,-6 -33,-26l81 0c0,-3 1,-6 1,-9l0 0 0 0zm105 -27c-7,-4 -21,-9 -35,-9 -13,0 -20,4 -20,12 0,7 8,10 18,11l11 2c24,3 39,13 39,33 0,20 -18,35 -50,35 -18,0 -35,-4 -48,-14l12 -18c7,6 19,11 36,11 16,0 25,-5 25,-13 0,-6 -6,-10 -19,-12l-11 -1c-25,-4 -38,-15 -38,-33 0,-22 17,-34 45,-34 18,0 33,3 45,11l-10 19 0 0zm294 -8c-6,0 -10,1 -14,2 -4,2 -8,4 -11,8 -3,3 -6,7 -7,11 -2,4 -3,9 -3,14 0,5 1,10 3,14 1,5 4,9 7,12 3,3 7,5 11,7 4,2 8,2 14,2 4,0 9,0 13,-2 5,-2 9,-4 12,-7 3,-3 5,-7 6,-12 3,-4 3,-9 3,-14 0,-5 0,-10 -3,-14 -1,-4 -3,-8 -6,-11 -3,-4 -7,-6 -12,-8 -4,-1 -9,-2 -13,-2l0 0zm0 -22c8,0 16,0 23,3 8,3 14,8 19,13 5,5 10,11 13,18 2,7 4,15 4,23 0,8 -2,16 -4,23 -3,7 -8,13 -13,18 -5,6 -11,10 -19,13 -7,3 -15,4 -23,4 -9,0 -17,-1 -24,-4 -7,-3 -13,-7 -19,-13 -5,-5 -9,-11 -12,-18 -3,-7 -4,-15 -4,-23 0,-8 1,-16 4,-23 3,-7 7,-13 12,-18 6,-5 12,-10 19,-13 7,-3 15,-3 24,-3l0 0zm-620 57c0,-20 12,-36 33,-36 20,0 33,16 33,36 0,20 -13,35 -33,35 -21,0 -33,-16 -33,-35l0 0zm89 0l0 -55 -24 0 0 13c-8,-9 -19,-15 -35,-15 -30,0 -55,23 -55,57 0,33 25,57 55,57 16,0 27,-6 35,-16l0 13 24 0 0 -54zm-135 54l0 -68c0,-26 -16,-43 -43,-43 -14,-1 -28,3 -38,18 -8,-12 -20,-18 -36,-18 -13,0 -24,3 -33,15l0 -13 -23 0 0 109 24 0 0 -60c0,-19 10,-30 26,-30 16,0 24,11 24,30l0 60 24 0 0 -60c0,-19 11,-30 27,-30 17,0 24,11 24,30l0 60 24 0 0 0z"/>
   <path id="Fill-4" class="fil5" d="M1777 804l0 -15 -4 0 -5 10 -4 -10 -5 0 0 15 3 0 0 -12 5 10 2 0 5 -10 0 12 3 0zm-25 0l0 -12 4 0 0 -3 -12 0 0 3 5 0 0 12 3 0 0 0 0 0z"/>
   <path id="Fill-1" class="fil6" d="M1749 1143l0 3 1 0c1,0 1,-1 1,-1 1,0 1,0 1,-1 0,0 0,0 -1,-1 0,0 0,0 -1,0l-1 0zm1 -1c1,0 2,0 3,1 0,0 0,0 0,1 0,1 0,2 0,2 0,0 -1,0 -2,0l2 3 -1 0 -2 -3 -1 0 0 3 -2 0 0 -7 3 0zm0 10c1,0 2,0 3,0 0,-1 0,-1 1,-2 1,-1 1,-1 2,-2 0,-1 0,-2 0,-2 0,-1 0,-2 0,-3 -1,0 -1,-1 -2,-2 -1,-1 -1,-1 -1,-1 -1,0 -2,0 -3,0 -1,0 -2,0 -3,0 -1,0 -1,0 -1,1 -1,1 -2,2 -2,2 -1,1 -1,2 -1,3 0,0 0,1 1,2 0,1 1,1 2,2 0,1 0,1 1,2 1,0 2,0 3,0zm0 -15c1,0 2,1 3,1 1,1 2,2 3,2 0,1 1,2 1,3 1,0 1,2 1,3 0,1 0,2 -1,3 0,1 -1,2 -1,3 -1,0 -2,0 -3,1 -1,0 -2,1 -3,1 -1,0 -2,-1 -4,-1 0,-1 -1,-1 -2,-1 -1,-1 -1,-2 -1,-3 -1,-1 -1,-2 -1,-3 0,-1 0,-3 1,-3 0,-1 0,-2 1,-3 1,0 2,-1 2,-2 2,0 3,-1 4,-1z"/>
  </g>
 </g>
</svg>
