<?xml version="1.0" encoding="UTF-8"?>
<!DOCTYPE svg PUBLIC "-//W3C//DTD SVG 1.1//EN" "http://www.w3.org/Graphics/SVG/1.1/DTD/svg11.dtd">
<!-- Creator: CorelDRAW X8 -->
<svg xmlns="http://www.w3.org/2000/svg" xml:space="preserve" width="1803px" height="1035px" version="1.1" style="shape-rendering:geometricPrecision; text-rendering:geometricPrecision; image-rendering:optimizeQuality; fill-rule:evenodd; clip-rule:evenodd"
viewBox="0 0 2305 1323"
 xmlns:xlink="http://www.w3.org/1999/xlink">
 <defs>
  <style type="text/css">
   <![CDATA[
    .str0 {stroke:#E0E0E0;stroke-width:30.5351}
    .fil4 {fill:black}
    .fil2 {fill:#EB001B}
    .fil3 {fill:#F79E1B}
    .fil1 {fill:#FF5F00}
    .fil0 {fill:white}
   ]]>
  </style>
 </defs>
 <g id="Layer_x0020_1">
  <metadata id="CorelCorpID_0Corel-Layer"/>
  <g id="_2287156183808">
   <path class="fil0 str0" d="M64 15l2177 0c27,0 49,23 49,50l0 1194c0,27 -22,49 -49,49l-2177 0c-27,0 -49,-22 -49,-49l0 -1194c0,-27 22,-50 49,-50z"/>
   <polygon id="Fill-2" class="fil1" points="989,868 1328,868 1328,259 989,259 "/>
   <path id="Fill-3" class="fil2" d="M1010 563c0,-123 59,-233 148,-304 -65,-52 -148,-83 -239,-83 -214,0 -387,173 -387,387 0,214 173,387 387,387 91,0 174,-31 239,-82 -89,-72 -148,-181 -148,-305z"/>
   <path id="Fill-4" class="fil3" d="M1772 803l0 -15 -3 0 -5 10 -5 -10 -3 0 0 15 2 0 0 -12 4 10 4 0 4 -10 0 12 2 0zm-24 0l0 -12 5 0 0 -3 -13 0 0 3 5 0 0 12 3 0 0 0z"/>
   <path id="Fill-5" class="fil3" d="M1785 563c0,214 -173,387 -387,387 -91,0 -174,-31 -240,-82 91,-72 148,-181 148,-305 0,-123 -57,-233 -148,-304 66,-52 149,-83 240,-83 214,0 387,173 387,387z"/>
   <path id="XMLID_1775_" class="fil4" d="M773 1147l0 -64c0,-24 -15,-40 -40,-40 -13,0 -26,5 -36,18 -7,-11 -17,-18 -34,-18 -10,0 -21,4 -29,15l0 -12 -22 0 0 101 22 0 0 -56c0,-18 10,-26 24,-26 15,0 22,9 22,26l0 56 22 0 0 -56c0,-18 11,-26 25,-26 14,0 22,9 22,26l0 56 24 0zm326 -101l-36 0 0 -31 -22 0 0 31 -20 0 0 19 20 0 0 47c0,23 10,37 35,37 9,0 20,-3 27,-7l-6 -20c-7,5 -14,6 -19,6 -11,0 -15,-6 -15,-17l0 -46 36 0 0 -19zm187 -3c-13,0 -21,7 -27,15l0 -12 -22 0 0 101 22 0 0 -57c0,-17 7,-26 21,-26 4,0 9,1 14,1l6 -21c-4,-1 -11,-1 -14,-1l0 0zm-282 11c-11,-7 -26,-11 -41,-11 -26,0 -42,13 -42,33 0,17 12,27 34,30l11 1c11,2 17,5 17,10 0,8 -8,13 -23,13 -15,0 -26,-5 -33,-11l-11 18c12,8 28,12 43,12 30,0 46,-14 46,-33 0,-18 -13,-27 -34,-30l-11 -1c-9,-2 -16,-3 -16,-10 0,-7 7,-11 19,-11 12,0 25,5 31,8l10 -18zm585 -11c-13,0 -21,7 -27,15l0 -12 -22 0 0 101 22 0 0 -57c0,-17 8,-26 21,-26 4,0 9,1 14,1l6 -21c-4,-1 -11,-1 -14,-1l0 0zm-282 53c0,31 21,53 54,53 14,0 25,-3 35,-12l-10 -18c-8,7 -17,10 -26,10 -18,0 -30,-13 -30,-33 0,-19 12,-31 30,-32 9,0 18,3 26,9l10 -18c-10,-8 -21,-12 -35,-12 -33,0 -54,22 -54,53l0 0zm204 0l0 -50 -22 0 0 12c-7,-9 -18,-15 -31,-15 -29,0 -51,22 -51,53 0,31 22,53 51,53 14,0 24,-5 31,-15l0 13 22 0 0 -51zm-81 0c0,-18 11,-32 31,-32 18,0 30,13 30,32 0,18 -12,33 -30,33 -20,-1 -31,-15 -31,-33l0 0zm-263 -53c-29,0 -50,22 -50,53 0,32 21,53 51,53 15,0 29,-4 41,-14l-11 -16c-8,7 -19,11 -29,11 -14,0 -27,-6 -31,-24l75 0 0 -9c1,-32 -18,-54 -46,-54l0 0zm0 19c13,0 23,9 25,24l-52 0c2,-13 11,-24 27,-24l0 0zm546 34l0 -91 -22 0 0 53c-7,-9 -18,-15 -31,-15 -29,0 -50,22 -50,53 0,31 21,53 50,53 15,0 25,-5 31,-15l0 13 22 0 0 -51zm-80 0c0,-18 11,-32 30,-32 18,0 30,13 30,32 0,18 -12,33 -30,33 -19,-1 -30,-15 -30,-33l0 0zm-736 0l0 -50 -23 0 0 12c-7,-9 -18,-15 -31,-15 -29,0 -50,22 -50,53 0,31 21,53 50,53 15,0 25,-5 31,-15l0 13 23 0 0 -51zm-83 0c0,-18 12,-32 31,-32 18,0 31,13 31,32 0,18 -13,33 -31,33 -19,-1 -31,-15 -31,-33z"/>
   <path id="Fill-1" class="fil4" d="M1745 1142l0 2 1 0c1,0 1,0 2,0 0,0 0,-1 0,-1 0,0 0,0 0,0 -1,-1 -1,-1 -2,-1l-1 0zm1 -1c1,0 2,0 2,1 1,0 1,1 1,1 0,1 0,2 0,2 -1,0 -1,0 -2,0l2 3 -1 0 -3 -2 0 0 0 2 -2 0 0 -7 3 0zm0 10c1,0 2,0 2,-1 1,0 1,0 2,-1 1,-1 1,-1 1,-2 1,-1 1,-2 1,-2 0,-1 0,-2 -1,-3 0,0 0,-1 -1,-2 -1,0 -1,-1 -2,-1 0,-1 -1,-1 -2,-1 -1,0 -2,0 -3,1 0,0 -1,1 -2,1 0,1 0,2 -1,2 0,1 0,2 0,3 0,0 0,1 0,2 1,1 1,1 1,2 1,1 2,1 2,1 1,1 2,1 3,1zm0 -14c1,0 2,0 3,0 1,1 2,1 2,2 2,1 2,1 2,3 1,1 1,1 1,3 0,1 0,2 -1,3 0,1 0,2 -2,2 0,1 -1,1 -2,2 -1,1 -2,1 -3,1 -1,0 -2,0 -3,-1 -2,-1 -2,-1 -3,-2 0,0 -1,-1 -2,-2 0,-1 0,-2 0,-3 0,-2 0,-2 0,-3 1,-2 2,-2 2,-3 1,-1 1,-1 3,-2 1,0 2,0 3,0z"/>
  </g>
 </g>
</svg>
