<svg width="200" height="200" viewBox="0 0 200 200" fill="none" xmlns="http://www.w3.org/2000/svg">
<rect width="200" height="200" fill="white"/>
<path d="M179.899 185.33H179.563V186.202H179.402V185.33H179.067V185.169H179.899V185.33ZM181.173 186.202H181.012V185.357L180.717 186.108H180.529L180.234 185.37V186.202H180.073V185.169H180.328L180.623 185.907L180.918 185.169H181.173V186.202ZM24.748 186.202H22.4815V160.211H24.748V186.202ZM42.0212 160.211C44.1803 160.211 46.1249 160.52 47.8683 161.123C49.5983 161.727 51.0735 162.599 52.2805 163.725C53.5009 164.852 54.4263 166.219 55.0834 167.815C55.7405 169.425 56.0758 171.222 56.0758 173.207C56.0758 175.205 55.7405 177.002 55.0834 178.598C54.4263 180.207 53.5009 181.575 52.2805 182.701C51.0735 183.828 49.5983 184.686 47.8683 185.29C46.1249 185.907 44.1803 186.202 42.0212 186.202H32.5263V160.211H42.0212ZM34.7927 162.371V184.056H42.0212C43.9121 184.056 45.5885 183.801 47.0234 183.278C48.4718 182.769 49.6922 182.044 50.6846 181.106C51.677 180.153 52.428 179.027 52.9376 177.686C53.4339 176.345 53.6887 174.856 53.6887 173.207C53.6887 171.57 53.4339 170.068 52.9376 168.741C52.428 167.4 51.677 166.26 50.6846 165.308C49.6922 164.369 48.4718 163.631 47.0234 163.135C45.5885 162.625 43.9121 162.371 42.0212 162.371H34.7927ZM83.8766 159.916C84.9897 159.916 86.076 160.037 87.1086 160.292C88.1412 160.533 89.1202 160.895 90.0322 161.351C90.9441 161.821 91.7622 162.384 92.4998 163.041C93.2374 163.698 93.8677 164.436 94.3907 165.267L92.4998 166.528C92.0438 165.844 91.5208 165.24 90.9039 164.691C90.287 164.141 89.6164 163.685 88.8788 163.296C88.1412 162.92 87.35 162.612 86.5051 162.411C85.6602 162.21 84.7751 162.102 83.8766 162.102C82.3343 162.102 80.8994 162.371 79.5583 162.907C78.2306 163.443 77.0772 164.194 76.0848 165.173C75.1058 166.152 74.328 167.319 73.7648 168.687C73.2015 170.042 72.9199 171.557 72.9199 173.207C72.9199 174.869 73.2015 176.385 73.7648 177.739C74.328 179.107 75.1058 180.274 76.0848 181.253C77.0772 182.232 78.2306 182.983 79.5583 183.52C80.8994 184.043 82.3343 184.311 83.8766 184.311C84.7751 184.311 85.6602 184.217 86.4917 184.016C87.3366 183.815 88.1278 183.533 88.8654 183.144C89.603 182.755 90.2736 182.299 90.8905 181.749C91.494 181.199 92.0304 180.583 92.4729 179.899L94.3371 181.253C93.7872 182.071 93.1435 182.795 92.4059 183.439C91.6683 184.083 90.8502 184.633 89.9517 185.089C89.0666 185.545 88.101 185.893 87.0684 186.135C86.0491 186.376 84.9763 186.497 83.8766 186.497C81.9856 186.497 80.2288 186.175 78.5927 185.518C76.97 184.861 75.5618 183.949 74.3682 182.782C73.1881 181.615 72.2493 180.207 71.5788 178.584C70.9082 176.962 70.573 175.165 70.573 173.207C70.573 171.262 70.9082 169.478 71.5788 167.842C72.2493 166.206 73.1881 164.811 74.3682 163.645C75.5618 162.464 76.97 161.552 78.5927 160.895C80.2288 160.252 81.9856 159.916 83.8766 159.916ZM102.089 171.758C102.437 171.195 102.84 170.699 103.309 170.27C103.765 169.854 104.275 169.519 104.824 169.25C105.361 168.982 105.937 168.781 106.528 168.647C107.118 168.526 107.708 168.459 108.311 168.459C109.397 168.459 110.39 168.62 111.302 168.955C112.2 169.277 112.978 169.747 113.622 170.35C114.279 170.954 114.775 171.691 115.137 172.576C115.486 173.448 115.66 174.414 115.66 175.5V186.202H113.541V176.144C113.541 175.272 113.421 174.467 113.166 173.77C112.925 173.059 112.562 172.469 112.08 171.973C111.597 171.49 111.007 171.114 110.309 170.86C109.625 170.591 108.834 170.457 107.936 170.457C107.118 170.457 106.353 170.605 105.642 170.873C104.932 171.155 104.315 171.557 103.792 172.067C103.255 172.576 102.853 173.193 102.545 173.904C102.236 174.615 102.089 175.406 102.089 176.251V186.202H99.9696V159.474H102.089V171.758ZM129.474 168.459C130.64 168.459 131.713 168.674 132.706 169.116C133.711 169.559 134.57 170.162 135.294 170.954C136.018 171.745 136.595 172.684 137.011 173.783C137.426 174.869 137.641 176.063 137.654 177.364C137.654 177.525 137.654 177.686 137.654 177.82C137.641 177.967 137.641 178.102 137.627 178.236H122.969C123.05 179.255 123.278 180.153 123.653 180.945C124.029 181.749 124.525 182.42 125.128 182.97C125.732 183.52 126.429 183.935 127.221 184.217C127.998 184.499 128.843 184.646 129.728 184.646C130.962 184.646 132.048 184.418 133.014 183.975C133.98 183.533 134.851 182.929 135.643 182.152L136.769 183.6C136.206 184.163 135.643 184.633 135.066 184.995C134.489 185.37 133.899 185.665 133.309 185.893C132.706 186.108 132.102 186.269 131.472 186.349C130.855 186.443 130.238 186.483 129.608 186.483C128.334 186.483 127.154 186.269 126.081 185.826C124.994 185.384 124.069 184.767 123.291 183.975C122.513 183.184 121.91 182.232 121.467 181.132C121.038 180.033 120.824 178.812 120.824 177.485C120.824 176.17 121.038 174.963 121.481 173.85C121.923 172.737 122.527 171.785 123.305 170.994C124.069 170.189 124.994 169.572 126.054 169.13C127.1 168.687 128.253 168.459 129.474 168.459ZM129.433 170.337C128.548 170.337 127.73 170.484 126.993 170.793C126.255 171.088 125.611 171.517 125.048 172.053C124.498 172.59 124.042 173.233 123.693 173.971C123.331 174.709 123.117 175.527 123.01 176.425H135.508C135.428 175.513 135.227 174.695 134.892 173.944C134.556 173.193 134.127 172.549 133.591 172.026C133.041 171.49 132.424 171.074 131.713 170.779C131.016 170.484 130.251 170.337 129.433 170.337ZM150.582 168.459C151.883 168.459 153.077 168.687 154.19 169.156C155.303 169.612 156.242 170.283 157.02 171.168L155.652 172.603C154.968 171.919 154.203 171.383 153.358 171.007C152.5 170.632 151.561 170.444 150.529 170.444C149.577 170.444 148.678 170.618 147.86 170.967C147.042 171.329 146.318 171.812 145.714 172.442C145.111 173.059 144.641 173.81 144.293 174.668C143.957 175.527 143.783 176.465 143.783 177.485C143.783 178.49 143.957 179.429 144.293 180.288C144.641 181.159 145.111 181.897 145.714 182.514C146.318 183.131 147.042 183.613 147.86 183.962C148.678 184.324 149.577 184.499 150.529 184.499C151.561 184.499 152.513 184.297 153.385 183.908C154.27 183.506 155.035 182.983 155.705 182.326L157.02 183.774C156.228 184.646 155.276 185.33 154.176 185.786C153.077 186.255 151.883 186.483 150.582 186.483C149.268 186.483 148.061 186.255 146.975 185.799C145.875 185.343 144.936 184.713 144.132 183.908C143.34 183.104 142.724 182.152 142.294 181.052C141.852 179.952 141.637 178.772 141.637 177.485C141.637 176.197 141.852 175.004 142.294 173.891C142.724 172.791 143.34 171.839 144.132 171.034C144.936 170.229 145.875 169.599 146.975 169.143C148.061 168.687 149.268 168.459 150.582 168.459ZM164.127 176.103H166.97L174.32 168.741H177.002L168.674 176.975L177.149 186.202H174.454L166.97 178.021H164.127V186.202H162.008V159.474H164.127V176.103ZM44.4754 146.814V137.909C44.4754 134.543 42.3296 132.29 38.883 132.263C37.0726 132.236 35.2085 132.799 33.8942 134.784C32.9152 133.215 31.3729 132.263 29.2004 132.263C27.6849 132.263 26.2097 132.706 25.043 134.369V132.625H21.9585V146.814H25.0698V138.942C25.0698 136.474 26.4377 135.173 28.5567 135.173C30.5951 135.173 31.6412 136.514 31.6412 138.915V146.814H34.7525V138.942C34.7525 136.474 36.1874 135.173 38.2259 135.173C40.3448 135.173 41.3506 136.514 41.3506 138.915V146.814H44.4754ZM90.6222 132.625H85.5663V128.307H82.455V132.625H79.5717V135.441H82.455V141.919C82.455 145.205 83.729 147.176 87.3902 147.176C88.7179 147.176 90.2602 146.76 91.2391 146.076L90.354 143.434C89.4287 143.957 88.4229 144.226 87.6182 144.226C86.076 144.226 85.5663 143.287 85.5663 141.852V135.441H90.6222V132.625ZM116.961 132.263C115.178 132.263 114.024 133.095 113.22 134.342V132.625H110.162V146.814H113.246V138.861C113.246 136.514 114.266 135.2 116.277 135.2C116.908 135.2 117.551 135.294 118.208 135.562L119.161 132.652C118.477 132.384 117.592 132.263 116.961 132.263ZM77.1443 133.752C75.6557 132.773 73.6038 132.263 71.3508 132.263C67.7567 132.263 65.4366 133.98 65.4366 136.809C65.4366 139.129 67.1532 140.551 70.3316 140.994L71.7934 141.208C73.4831 141.436 74.2878 141.879 74.2878 142.683C74.2878 143.783 73.1613 144.413 71.0558 144.413C68.91 144.413 67.3678 143.729 66.3217 142.925L64.8733 145.325C66.5631 146.572 68.7089 147.176 71.0155 147.176C75.1193 147.176 77.493 145.245 77.493 142.536C77.493 140.041 75.6289 138.741 72.531 138.285L71.0826 138.083C69.7415 137.909 68.6686 137.641 68.6686 136.689C68.6686 135.643 69.6878 135.026 71.3776 135.026C73.1881 135.026 74.9449 135.71 75.8032 136.246L77.1443 133.752ZM159.876 132.263C158.092 132.263 156.939 133.095 156.134 134.342V132.625H153.077V146.814H156.161V138.861C156.161 136.514 157.18 135.2 159.192 135.2C159.822 135.2 160.466 135.294 161.123 135.562L162.075 132.652C161.392 132.384 160.506 132.263 159.876 132.263ZM120.086 139.72C120.086 144.024 123.077 147.176 127.65 147.176C129.795 147.176 131.217 146.693 132.759 145.473L131.284 142.978C130.117 143.81 128.897 144.266 127.569 144.266C125.102 144.226 123.291 142.455 123.291 139.72C123.291 136.984 125.102 135.2 127.569 135.173C128.897 135.173 130.117 135.616 131.284 136.447L132.759 133.953C131.217 132.732 129.795 132.263 127.65 132.263C123.077 132.263 120.086 135.415 120.086 139.72ZM149.013 139.72V132.625H145.915V134.342C144.936 133.068 143.461 132.263 141.436 132.263C137.453 132.263 134.342 135.374 134.342 139.72C134.342 144.051 137.453 147.176 141.436 147.176C143.461 147.176 144.936 146.371 145.915 145.097V146.814H149.013V139.72ZM137.52 139.72C137.52 137.225 139.143 135.173 141.825 135.173C144.373 135.173 146.103 137.131 146.103 139.72C146.103 142.294 144.373 144.266 141.825 144.266C139.143 144.266 137.52 142.214 137.52 139.72ZM100.238 132.263C96.0805 132.263 93.1703 135.294 93.1703 139.72C93.1703 144.226 96.2012 147.176 100.452 147.176C102.585 147.176 104.556 146.64 106.273 145.178L104.757 142.898C103.564 143.85 102.048 144.373 100.627 144.373C98.642 144.373 96.8315 143.461 96.3889 140.9H106.93C106.957 140.524 106.984 140.135 106.984 139.72C106.957 135.294 104.221 132.263 100.238 132.263ZM100.184 135.026C102.169 135.026 103.456 136.273 103.778 138.472H96.4157C96.7376 136.42 97.9848 135.026 100.184 135.026ZM177.672 139.72V126.912H174.574V134.342C173.595 133.068 172.12 132.263 170.095 132.263C166.112 132.263 163.001 135.374 163.001 139.72C163.001 144.051 166.112 147.176 170.095 147.176C172.12 147.176 173.595 146.371 174.574 145.097V146.814H177.672V139.72ZM166.179 139.72C166.179 137.225 167.802 135.173 170.484 135.173C173.032 135.173 174.762 137.131 174.762 139.72C174.762 142.294 173.032 144.266 170.484 144.266C167.802 144.266 166.179 142.214 166.179 139.72ZM61.8693 139.72V132.625H58.7848V134.342C57.8058 133.068 56.3172 132.263 54.3056 132.263C50.3225 132.263 47.1978 135.374 47.1978 139.72C47.1978 144.051 50.3225 147.176 54.3056 147.176C56.3172 147.176 57.8058 146.371 58.7848 145.097V146.814H61.8693V139.72ZM50.3762 139.72C50.3762 137.225 52.0123 135.173 54.6811 135.173C57.2425 135.173 58.9591 137.131 58.9591 139.72C58.9591 142.294 57.2425 144.266 54.6811 144.266C52.0123 144.266 50.3762 142.214 50.3762 139.72ZM182.822 144.762C183.01 144.762 183.198 144.789 183.372 144.869C183.546 144.936 183.707 145.044 183.828 145.164C183.962 145.298 184.069 145.446 184.136 145.62C184.217 145.795 184.257 145.969 184.257 146.17C184.257 146.358 184.217 146.546 184.136 146.72C184.069 146.881 183.962 147.028 183.828 147.163C183.707 147.297 183.546 147.391 183.372 147.471C183.198 147.538 183.01 147.578 182.822 147.578C182.608 147.578 182.42 147.538 182.245 147.471C182.071 147.391 181.924 147.297 181.789 147.163C181.655 147.028 181.561 146.881 181.481 146.72C181.414 146.546 181.374 146.358 181.374 146.17C181.374 145.969 181.414 145.795 181.481 145.62C181.561 145.446 181.655 145.298 181.789 145.164C181.924 145.044 182.071 144.936 182.245 144.869C182.42 144.789 182.608 144.762 182.822 144.762ZM182.822 147.27C182.97 147.27 183.117 147.243 183.238 147.176C183.372 147.122 183.493 147.042 183.587 146.948C183.694 146.854 183.761 146.733 183.828 146.599C183.882 146.465 183.908 146.318 183.908 146.17C183.908 146.023 183.882 145.875 183.828 145.741C183.761 145.607 183.694 145.486 183.587 145.392C183.493 145.285 183.372 145.218 183.238 145.151C183.117 145.097 182.97 145.07 182.822 145.07C182.661 145.07 182.514 145.097 182.38 145.151C182.245 145.218 182.125 145.285 182.031 145.392C181.937 145.486 181.857 145.607 181.803 145.741C181.736 145.875 181.709 146.023 181.709 146.17C181.709 146.318 181.736 146.465 181.803 146.599C181.857 146.733 181.937 146.854 182.031 146.948C182.125 147.042 182.245 147.122 182.38 147.176C182.514 147.243 182.661 147.27 182.822 147.27ZM182.903 145.513C183.064 145.513 183.198 145.54 183.291 145.62C183.385 145.701 183.426 145.795 183.426 145.929C183.426 146.036 183.385 146.13 183.318 146.197C183.238 146.264 183.144 146.304 183.01 146.331L183.439 146.814H183.104L182.701 146.331H182.581V146.814H182.299V145.513H182.903ZM182.581 145.754V146.103H182.903C182.97 146.103 183.023 146.09 183.077 146.063C183.117 146.036 183.144 145.982 183.144 145.929C183.144 145.875 183.117 145.821 183.077 145.795C183.023 145.768 182.97 145.754 182.903 145.754H182.581Z" fill="black"/>
<path d="M122.889 108.499H76.1118V24.4263H122.889V108.499Z" fill="#F26B35"/>
<path d="M79.0754 66.4693C79.0754 49.4106 87.0683 34.216 99.5002 24.4261C90.4076 17.2647 78.9279 13 66.4558 13C36.9384 13 13 36.9385 13 66.4693C13 95.9867 36.9384 119.925 66.4558 119.925C78.9279 119.925 90.4076 115.66 99.5002 108.499C87.0683 98.7091 79.0754 83.5145 79.0754 66.4693Z" fill="#E63237"/>
<path d="M180.904 99.5941V97.8775H181.602V97.5288H179.832V97.8775H180.529V99.5941H180.904ZM184.338 99.5941V97.5154H183.788L183.171 98.9503L182.541 97.5154H182.004V99.5941H182.393V98.025L182.97 99.3795H183.372L183.949 98.025V99.5941H184.338Z" fill="black"/>
<path d="M186.001 66.4693C186.001 95.9867 162.076 119.925 132.545 119.925C120.073 119.925 108.593 115.66 99.5005 108.499C111.932 98.7091 119.925 83.5145 119.925 66.4693C119.925 49.4106 111.932 34.216 99.5005 24.4261C108.593 17.2647 120.073 13 132.545 13C162.076 13 186.001 36.9385 186.001 66.4693Z" fill="#F9A132"/>
</svg>
