<svg width="200" height="200" viewBox="0 0 200 200" fill="none" xmlns="http://www.w3.org/2000/svg">
<rect width="200" height="200" fill="white"/>
<path d="M187 13H12V100.446H187V13Z" fill="#FEFEFE"/>
<path d="M187 100.24H12V187.686H187V100.24Z" fill="#1A1F71"/>
<path d="M63.5417 133.133C62.6195 132.681 61.0794 132.21 59.0487 132.21C54.801 132.21 52.0934 134.604 52.0934 137.783C52.0934 140.51 54.2418 142.325 57.4301 143.541C59.9708 144.532 61.0597 145.591 61.0597 147.298C61.0597 149.113 59.6373 150.349 57.0965 150.349C55.3307 150.349 53.6042 149.819 52.4564 149.162L51.7305 151.713C52.7703 152.37 54.8893 152.919 56.9003 152.919C61.6974 152.919 64.3461 150.398 64.3461 147.033C64.3461 144.277 62.698 142.511 59.2743 141.088C56.5668 139.99 55.3602 139.146 55.3602 137.439C55.3602 136.154 56.4196 134.761 58.9604 134.761C60.7164 134.761 62.0604 135.281 62.7569 135.654L63.5417 133.133ZM79.4534 150.084H71.0463V143.404H78.5313V140.882H71.0463V135.046H78.9727V132.495H67.809V152.635H79.4534V150.084ZM96.0029 149.633C95.0807 150.055 93.5994 150.349 92.1475 150.349C87.7429 150.349 85.0059 147.583 85.0059 142.638C85.0059 137.41 88.0764 134.781 92.2064 134.781C93.7956 134.781 95.0513 135.124 95.944 135.516L96.6405 133.025C96.0519 132.73 94.551 132.23 92.0887 132.23C86.1733 132.23 81.6018 135.968 81.6018 142.805C81.6018 149.211 85.5847 152.919 91.5393 152.919C93.8545 152.919 95.6693 152.497 96.562 152.076L96.0029 149.633ZM114.789 132.495H111.542V144.689C111.542 148.691 109.874 150.428 107.196 150.428C104.734 150.428 102.978 148.711 102.978 144.689V132.495H99.7404V144.502C99.7404 150.506 102.703 152.919 107.078 152.919C111.63 152.919 114.789 150.398 114.789 144.424V132.495ZM128.346 143.011C130.495 142.246 132.172 140.49 132.172 137.91C132.172 136.282 131.584 134.889 130.465 133.966C129.131 132.838 127.179 132.367 124.383 132.367C122.46 132.367 120.557 132.554 119.194 132.789V152.635H122.401V144.12H124.354C126.62 144.12 127.65 145.14 128.238 147.818C128.768 150.29 129.268 152.056 129.573 152.635H132.928C132.506 151.87 131.976 149.79 131.338 147.161C130.828 145.032 129.936 143.619 128.346 143.06V143.011ZM122.401 141.824V134.918C122.794 134.81 123.579 134.732 124.668 134.732C126.983 134.732 128.935 135.624 128.935 138.224C128.935 140.382 127.257 141.824 124.579 141.824H122.401ZM147.437 150.084H139.039V143.404H146.514V140.882H139.039V135.046H146.966V132.495H135.802V152.635H147.437V150.084Z" fill="#FEFEFE" stroke="#FEFEFE" stroke-width="0.287993"/>
<path fill-rule="evenodd" clip-rule="evenodd" d="M95.3753 37.5447L86.9878 76.7551H76.8541L85.2416 37.5447H95.3753ZM138.078 62.8642L143.434 48.1296L146.505 62.8642H138.078ZM149.389 76.7551H158.767L150.596 37.5447H141.933C139.971 37.5447 138.353 38.6924 137.597 40.4288L122.382 76.7943H133.026L135.135 70.928H148.153L149.389 76.7551ZM122.922 63.9531C122.951 53.6036 108.609 53.0346 108.697 48.4043C108.727 46.9917 110.08 45.5104 113.004 45.1278C114.446 44.9414 118.439 44.7942 123.01 46.8641L124.786 38.5355C122.353 37.633 119.194 36.7893 115.29 36.7893C105.274 36.7893 98.2006 42.1161 98.1417 49.7581C98.0829 55.4086 103.194 58.538 107.049 60.4313C110.983 62.3541 112.307 63.5901 112.307 65.3069C112.278 67.9163 109.149 69.0935 106.235 69.1524C101.124 69.2407 98.1712 67.7692 95.7972 66.6901L93.9627 75.2836C96.3367 76.3725 100.702 77.3339 105.244 77.3633C115.917 77.3927 122.863 72.0954 122.922 63.9531ZM80.886 37.5447L64.4347 76.7551H53.6928L45.6094 45.4515C45.1287 43.5288 44.7068 42.8126 43.2059 41.9984C40.7632 40.6741 36.7313 39.438 33.1899 38.6532L33.4254 37.5152H50.6909C52.8884 37.5152 54.87 38.9867 55.3801 41.5177L59.6474 64.218L70.2029 37.5152H80.886V37.5447Z" fill="#1A1F71"/>
</svg>
