<?xml version="1.0" encoding="UTF-8"?>
<!DOCTYPE svg PUBLIC "-//W3C//DTD SVG 1.1//EN" "http://www.w3.org/Graphics/SVG/1.1/DTD/svg11.dtd">
<!-- Creator: CorelDRAW X8 -->
<svg xmlns="http://www.w3.org/2000/svg" xml:space="preserve" width="1803px" height="1035px" version="1.1" style="shape-rendering:geometricPrecision; text-rendering:geometricPrecision; image-rendering:optimizeQuality; fill-rule:evenodd; clip-rule:evenodd"
viewBox="0 0 1763 1012"
 xmlns:xlink="http://www.w3.org/1999/xlink">
 <defs>
  <style type="text/css">
   <![CDATA[
    .fil2 {fill:#3086C8}
    .fil0 {fill:white}
    .fil1 {fill:#E0E0E0;fill-rule:nonzero}
   ]]>
  </style>
 </defs>
 <g id="Layer_x0020_1">
  <metadata id="CorelCorpID_0Corel-Layer"/>
  <g>
   <path class="fil0" d="M50 12l1664 0c20,0 37,16 37,37l0 914c0,20 -17,37 -37,37l-1664 0c-21,0 -38,-17 -38,-37l0 -914c0,-21 17,-37 38,-37z"/>
   <path id="1" class="fil1" d="M1714 23l-1664 0 0 -23 1664 0 0 0 0 23zm49 26l-24 0 0 0 0 -1 0 -2 0 -1 0 -1 0 -1 -1 -2 0 -1 -1 -1 0 -1 -1 -1 0 -1 -1 -1 -1 -1 0 -1 -1 -1 -1 -1 -1 -1 -1 -1 -1 -1 -1 0 -1 -1 -1 -1 -1 0 -1 -1 -1 0 -2 -1 -1 0 -1 0 -1 0 -2 -1 -1 0 -1 0 0 -23 2 0 3 0 2 1 3 0 2 1 2 0 3 1 2 1 2 1 2 1 2 1 2 1 2 2 2 1 2 2 1 1 2 2 2 2 1 2 1 2 2 2 1 2 1 2 1 2 1 2 1 3 0 2 1 2 0 3 1 2 0 3 0 2 0 0zm-24 914l0 -914 24 0 0 914 0 0 -24 0zm-25 49l0 -23 0 0 1 0 1 -1 2 0 1 0 1 0 1 -1 2 0 1 0 1 -1 1 -1 1 0 1 -1 1 -1 1 0 1 -1 1 -1 1 -1 1 -1 0 -1 1 -1 1 -1 0 -1 1 -1 0 -1 1 -1 0 -2 1 -1 0 -1 0 -1 0 -2 0 -1 0 -1 24 0 0 2 0 3 -1 2 0 3 -1 2 0 2 -1 3 -1 2 -1 2 -1 2 -1 2 -2 2 -1 2 -1 2 -2 2 -2 2 -1 1 -2 2 -2 1 -2 1 -2 2 -2 1 -2 1 -2 1 -2 1 -3 1 -2 0 -2 1 -3 0 -2 1 -3 0 -2 0 0 0zm-1664 -23l1664 0 0 23 -1664 0 0 0 0 -23zm-50 -26l23 0 0 0 0 1 0 1 1 2 0 1 0 1 1 1 0 2 0 1 1 1 1 1 0 1 1 1 1 1 0 1 1 1 1 1 1 1 1 1 1 0 1 1 1 1 1 0 1 1 2 1 1 0 1 0 1 1 1 0 2 0 1 0 1 1 2 0 0 23 -3 0 -2 0 -3 -1 -2 0 -3 -1 -2 0 -2 -1 -2 -1 -3 -1 -2 -1 -2 -1 -2 -1 -2 -2 -2 -1 -2 -2 -1 -1 -2 -2 -1 -2 -2 -2 -1 -2 -2 -2 -1 -2 -1 -2 -1 -2 -1 -2 -1 -3 0 -2 -1 -2 0 -3 -1 -2 0 -3 0 -2 0 0zm23 -914l0 914 -23 0 0 -914 0 0 23 0zm27 -49l0 23 0 0 -2 0 -1 0 -1 1 -2 0 -1 0 -1 0 -1 1 -1 0 -2 1 -1 0 -1 1 -1 1 -1 0 -1 1 -1 1 -1 1 -1 1 -1 1 0 1 -1 1 -1 1 0 1 -1 1 -1 1 0 1 0 2 -1 1 0 1 0 1 -1 2 0 1 0 1 -23 0 0 -2 0 -3 1 -2 0 -3 1 -2 0 -3 1 -2 1 -2 1 -2 1 -2 1 -2 2 -2 1 -2 2 -2 1 -2 2 -2 1 -1 2 -2 2 -1 2 -2 2 -1 2 -1 2 -1 3 -1 2 -1 2 -1 2 0 3 -1 2 0 3 -1 2 0 3 0 0 0z"/>
  </g>
  <path class="fil2" d="M612 509l0 167c0,12 -8,12 -24,8 -83,-36 -135,-147 -103,-243 20,-48 56,-91 103,-107 20,-8 24,-4 24,8l0 167 0 0zm92 0l0 -167c0,-12 0,-12 12,-8 95,35 147,147 107,243 -16,51 -51,91 -103,107 -16,12 -16,4 -16,-8l0 -167 0 0zm322 -315l-370 0c175,0 311,140 311,315 0,175 -136,318 -311,318l370 0c176,0 311,-143 311,-318 0,-175 -135,-315 -311,-315z"/>
 </g>
</svg>
