<?xml version="1.0" encoding="UTF-8"?>
<!DOCTYPE svg PUBLIC "-//W3C//DTD SVG 1.1//EN" "http://www.w3.org/Graphics/SVG/1.1/DTD/svg11.dtd">
<!-- Creator: CorelDRAW X8 -->
<svg xmlns="http://www.w3.org/2000/svg" xml:space="preserve" width="1803px" height="1035px" version="1.1" style="shape-rendering:geometricPrecision; text-rendering:geometricPrecision; image-rendering:optimizeQuality; fill-rule:evenodd; clip-rule:evenodd"
viewBox="0 0 1803 1035"
 xmlns:xlink="http://www.w3.org/1999/xlink">
 <defs>
  <style type="text/css">
   <![CDATA[
    .fil2 {fill:#231F20}
    .fil0 {fill:white}
    .fil1 {fill:#E0E0E0;fill-rule:nonzero}
    .fil4 {fill:url(#id0)}
    .fil3 {fill:url(#id1)}
   ]]>
  </style>
  <linearGradient id="id0" gradientUnits="userSpaceOnUse" x1="996.391" y1="441.475" x2="874.308" y2="681.244">
   <stop offset="0" style="stop-opacity:1; stop-color:#F58720"/>
   <stop offset="0.360784" style="stop-opacity:1; stop-color:#E16F27"/>
   <stop offset="0.701961" style="stop-opacity:1; stop-color:#D4602C"/>
   <stop offset="0.980392" style="stop-opacity:1; stop-color:#D05B2E"/>
   <stop offset="1" style="stop-opacity:1; stop-color:#D05B2E"/>
  </linearGradient>
  <linearGradient id="id1" gradientUnits="userSpaceOnUse" x1="1008.04" y1="441.475" x2="925.597" y2="571.112">
   <stop offset="0" style="stop-opacity:1; stop-color:#F89F20"/>
   <stop offset="0.25098" style="stop-opacity:1; stop-color:#F79A20"/>
   <stop offset="0.529412" style="stop-opacity:1; stop-color:#F68D20"/>
   <stop offset="0.619608" style="stop-opacity:1; stop-color:#F58720"/>
   <stop offset="0.721569" style="stop-opacity:1; stop-color:#F48120"/>
   <stop offset="1" style="stop-opacity:1; stop-color:#F37521"/>
  </linearGradient>
 </defs>
 <g id="Layer_x0020_1">
  <metadata id="CorelCorpID_0Corel-Layer"/>
  <g>
   <path class="fil0" d="M51 12l1701 0c22,0 39,17 39,38l0 934c0,22 -17,39 -39,39l-1701 0c-22,0 -39,-17 -39,-39l0 -934c0,-21 17,-38 39,-38z"/>
   <path id="1" class="fil1" d="M1752 24l-1701 0 0 -24 1701 0 0 0 0 24zm51 26l-24 0 0 0 0 -1 0 -2 0 -1 -1 -1 0 -2 0 -1 -1 -1 0 -1 -1 -1 0 -2 -1 -1 -1 -1 0 -1 -1 -1 -1 -1 -1 -1 -1 -1 -1 0 -1 -1 -1 -1 -1 -1 -1 0 -1 -1 -1 0 -1 -1 -2 0 -1 -1 -1 0 -1 0 -2 0 -1 0 -2 0 0 -24 3 0 3 0 2 1 3 0 2 1 2 0 3 1 2 1 2 1 2 1 2 1 2 2 2 1 2 1 2 2 2 2 2 1 1 2 2 2 1 2 1 2 1 2 2 2 1 3 0 2 1 2 1 3 1 2 0 2 0 3 0 3 1 2 0 0zm-24 934l0 -934 24 0 0 934 0 0 -24 0zm-27 51l0 -24 0 0 2 0 1 0 2 0 1 -1 1 0 1 0 2 -1 1 0 1 -1 1 0 1 -1 1 -1 1 0 1 -1 1 -1 1 -1 1 -1 1 -1 1 -1 0 -1 1 -1 1 -1 0 -1 1 -1 0 -1 1 -2 0 -1 0 -1 1 -1 0 -2 0 -1 0 -2 24 0 -1 3 0 3 0 2 0 3 -1 2 -1 2 -1 3 0 2 -1 2 -2 2 -1 2 -1 2 -1 2 -2 2 -1 2 -2 2 -2 2 -2 1 -2 2 -2 1 -2 1 -2 1 -2 2 -2 1 -2 0 -3 1 -2 1 -2 1 -3 0 -2 0 -3 0 -3 1 0 0zm-1701 -24l1701 0 0 24 -1701 0 0 0 0 -24zm-51 -27l24 0 0 0 0 2 0 1 0 1 0 2 0 1 1 1 0 2 1 1 0 1 1 1 0 1 1 1 1 1 1 1 1 1 0 1 1 1 1 1 1 1 2 0 1 1 1 1 1 0 1 1 1 0 2 1 1 0 1 0 2 1 1 0 1 0 2 0 0 24 -3 -1 -2 0 -3 0 -2 0 -3 -1 -2 -1 -3 0 -2 -1 -2 -1 -2 -1 -2 -2 -2 -1 -2 -1 -2 -2 -2 -1 -2 -2 -2 -2 -1 -2 -2 -1 -1 -2 -2 -2 -1 -3 -1 -2 -1 -2 -1 -2 -1 -3 0 -2 -1 -2 0 -3 -1 -2 0 -3 0 -3 0 0zm24 -934l0 934 -24 0 0 -934 0 0 24 0zm27 -50l0 24 0 0 -2 0 -1 0 -1 0 -2 0 -1 0 -1 1 -2 0 -1 1 -1 0 -1 1 -1 0 -1 1 -2 1 -1 1 -1 0 -1 1 0 1 -1 1 -1 1 -1 1 -1 1 0 2 -1 1 0 1 -1 1 0 1 -1 1 0 2 0 1 0 1 0 2 0 1 -24 0 0 -2 0 -3 1 -3 0 -2 1 -3 0 -2 1 -2 1 -3 1 -2 1 -2 1 -2 2 -2 1 -2 2 -2 1 -2 2 -1 2 -2 2 -2 2 -1 2 -2 2 -1 2 -1 2 -1 2 -1 2 -1 3 -1 2 0 3 -1 2 0 3 -1 2 0 3 0 0 0z"/>
  </g>
  <g>
   <path class="fil2" d="M265 425l-65 0 0 228 65 0c34,0 59,-9 81,-27 26,-21 41,-53 41,-87 0,-67 -50,-114 -122,-114l0 0zm52 171c-14,13 -32,18 -61,18l-12 0 0 -150 12 0c29,0 46,5 61,18 15,14 24,35 24,57 0,22 -9,43 -24,57z"/>
   <rect id="XMLID_422_" class="fil2" x="407" y="425" width="44.3681" height="227.179"/>
   <path id="XMLID_421_" class="fil2" d="M560 513c-27,-10 -34,-17 -34,-29 0,-14 14,-25 33,-25 13,0 24,5 36,18l23 -30c-19,-17 -42,-25 -67,-25 -40,0 -71,28 -71,65 0,31 14,47 56,62 17,6 26,10 31,13 9,6 13,14 13,24 0,18 -15,31 -34,31 -22,0 -39,-10 -49,-30l-28 28c20,29 44,43 78,43 46,0 78,-31 78,-75 0,-35 -14,-52 -65,-70l0 0z"/>
   <path id="XMLID_420_" class="fil2" d="M639 539c0,67 52,119 120,119 19,0 36,-4 56,-14l0 -52c-18,17 -34,25 -54,25 -44,0 -76,-33 -76,-79 0,-43 33,-78 74,-78 22,0 37,8 56,26l0 -52c-20,-10 -36,-14 -55,-14 -67,0 -121,53 -121,119z"/>
   <polygon id="XMLID_419_" class="fil2" points="1166,578 1105,425 1057,425 1154,659 1177,659 1275,425 1228,425 "/>
   <polygon id="XMLID_418_" class="fil2" points="1296,653 1421,653 1421,614 1340,614 1340,553 1418,553 1418,514 1340,514 1340,464 1421,464 1421,425 1296,425 "/>
   <path class="fil2" d="M1596 493c0,-43 -29,-68 -80,-68l-65 0 0 228 44 0 0 -91 6 0 61 91 55 0 -72 -96c33,-7 51,-30 51,-64l0 0zm-88 37l-13 0 0 -69 13 0c28,0 43,12 43,34 0,23 -15,35 -43,35z"/>
   <circle id="XMLID_415_" class="fil3" cx="950" cy="540" r="121"/>
   <path id="XMLID_414_" class="fil4" d="M1071 540c0,-67 -54,-121 -121,-121 -67,0 -121,54 -121,121 0,67 54,121 121,121 67,0 121,-54 121,-121z"/>
  </g>
 </g>
</svg>
