<?xml version="1.0" encoding="UTF-8"?>
<!DOCTYPE svg PUBLIC "-//W3C//DTD SVG 1.1//EN" "http://www.w3.org/Graphics/SVG/1.1/DTD/svg11.dtd">
<!-- Creator: CorelDRAW 2020 (64-Bit) -->
<svg xmlns="http://www.w3.org/2000/svg" xml:space="preserve" width="476.98mm" height="273.725mm" version="1.1" style="shape-rendering:geometricPrecision; text-rendering:geometricPrecision; image-rendering:optimizeQuality; fill-rule:evenodd; clip-rule:evenodd"
viewBox="0 0 47697.98 27372.51"
 xmlns:xlink="http://www.w3.org/1999/xlink"
 xmlns:xodm="http://www.corel.com/coreldraw/odm/2003">
 <defs>
  <style type="text/css">
   <![CDATA[
    .str0 {stroke:#E0E0E0;stroke-width:631.73;stroke-miterlimit:22.9256}
    .fil2 {fill:#064B76}
    .fil1 {fill:#C52F33}
    .fil0 {fill:white}
   ]]>
  </style>
 </defs>
 <g id="Layer_x0020_1">
  <metadata id="CorelCorpID_0Corel-Layer"/>
  <g id="_2631520006128">
   <path class="fil0 str0" d="M1353.94 315.87l45010.86 0c560.56,0 1017.31,456.75 1017.31,1038.07l0 24706.15c0,560.56 -456.75,996.55 -1017.31,996.55l-45010.86 0c-581.32,0 -1038.07,-435.99 -1038.07,-996.55l0 -24706.14c0,-581.32 456.75,-1038.07 1038.07,-1038.07l0 -0.01z"/>
   <path class="fil1" d="M33335.19 10475.27c-988.15,-2095.9 -3075.77,-3359.67 -5444.17,-3359.67 -3000.87,0 -5788.43,2015.84 -6773.47,4798.22 1169.11,-3403.38 4331.18,-5688.6 7735.62,-5688.6 2686.67,0 5054.07,1433.32 6239.83,3789.3l-444.1 696.89 -1313.71 -236.14 0 0zm-840.43 5307.92c158.07,-143.54 268.31,-315.2 330.73,-511.75 62.42,-197.67 112.37,-383.86 149.78,-560.64l313.09 -1379.25c37.47,-148.72 60.3,-263.15 69.71,-345.33 9.36,-81.13 13.53,-142.48 13.53,-185.14 0,-41.59 -10.41,-93.59 -31.23,-157.07 -20.77,-62.42 -72.78,-133.13 -157.08,-212.2l1009.98 0c97.77,0 190.37,-11.41 278.79,-34.29 88.42,-22.95 178.9,-58.3 271.5,-104.01l-160.19 710.42c46.82,-79.07 104.01,-159.19 173.72,-240.32 69.65,-81.13 148.72,-153.96 237.14,-219.43 88.42,-64.54 186.19,-117.54 292.26,-157.08 107.13,-39.53 222.61,-57.24 348.45,-52l160.19 7.23 -229.85 1045.4c-79.06,-65.54 -152.89,-107.13 -222.61,-125.9 -69.71,-18.7 -122.71,-28.06 -160.19,-28.06 -134.13,0 -253.79,32.24 -358.86,97.78 -104.01,65.53 -189.31,146.66 -254.78,243.37 -37.48,51.01 -69.72,110.25 -97.78,177.9 -28.12,67.6 -53.06,136.25 -77.01,205.96 -22.88,69.66 -42.65,133.13 -59.3,191.37 -16.59,58.24 -27.06,102.95 -31.18,136.25l-90.47 425.45c-9.36,41.6 -19.77,91.54 -31.24,149.78 -11.42,58.24 -22.89,120.66 -34.3,188.26 -11.47,67.59 -21.83,132.07 -31.18,195.54 -9.35,62.42 -13.53,117.55 -13.53,163.31 0,101.9 13.53,183.02 41.59,243.38 28.06,60.3 53.07,104.01 77.01,132.07l-1726.69 0.06 0 -1.06zm-22907.31 -725.01c65.54,22.89 133.13,40.59 205.97,52.01 71.77,11.47 140.42,17.7 205.96,17.7 167.48,0 343.26,-46.82 529.46,-139.36 186.19,-92.6 357.8,-240.32 515.87,-442.1 158.13,-201.79 289.2,-459.75 393.21,-773.84 104.01,-313.09 157.08,-690.71 157.08,-1131.7 0,-282.91 -38.48,-502.4 -115.48,-658.41 -76.95,-156.02 -167.43,-269.44 -271.5,-341.21 -104.01,-71.77 -211.14,-115.43 -320.32,-128.96 -109.25,-13.53 -193.49,-20.82 -253.79,-20.82 -51.01,0 -89.48,1.06 -115.48,3.12 -26.01,2.06 -72.84,12.47 -142.49,31.18l-788.49 3532.39 0 0zm-1831.7 725.01c101.95,-73.89 186.19,-150.84 250.67,-229.9 65.54,-79.01 118.6,-163.25 160.19,-253.79 41.6,-90.48 75.95,-185.14 100.9,-281.85 26,-97.78 49.88,-199.73 72.83,-306.85l606.41 -2731.44c46.77,-203.84 72.77,-350.56 80.06,-438.93 7.3,-88.42 10.42,-146.72 10.42,-173.72 0,-65.53 -12.54,-135.25 -38.48,-209.08 -26,-73.83 -80.12,-158.13 -163.31,-250.67l2132.32 0c282.91,0 535.64,21.83 756.19,66.6 220.49,43.65 421.28,126.89 602.24,247.55 246.49,167.43 422.27,387.98 529.46,661.53 107.13,273.56 160.19,582.47 160.19,926.74 0,241.32 -27.06,481.63 -80.13,720.83 -53,239.26 -130.01,467.05 -229.84,682.36 -99.89,216.38 -225.73,418.1 -376.57,606.41 -150.83,188.26 -323.5,351.57 -519.05,490.93 -241.31,171.61 -508.63,293.32 -800.9,366.15 -292.32,71.78 -652.18,108.19 -1079.69,108.19l-2173.91 0 0 -1.06zm6938.9 -5058.24c195.49,0 350.5,57.18 466.98,170.54 116.48,113.36 173.73,268.38 173.73,462.87 0,227.78 -69.72,412.92 -209.08,557.52 -139.37,143.55 -316.21,216.38 -529.47,216.38 -209.07,0 -373.38,-61.36 -495.1,-185.14 -120.66,-122.78 -180.96,-281.91 -180.96,-477.46 0,-222.61 69.71,-402.51 209.08,-539.81 139.36,-136.25 327.62,-204.9 564.82,-204.9l0 0zm-244.5 1706.86c181.02,0 323.5,-17.65 428.57,-52 104.01,-34.36 182.02,-63.48 233.03,-87.36l-522.17 2368.4c-9.36,32.24 -19.77,79.07 -31.24,139.42 -11.41,60.3 -17.65,113.37 -17.65,160.14 0,51 9.35,89.48 28.06,115.48 18.77,26 40.59,45.77 66.6,59.3 26,13.53 50.94,21.82 76.95,23.88 26,2.12 47.88,3.12 66.59,3.12 73.83,0 132.07,-7.23 173.72,-20.77 41.59,-13.53 73.83,-26 97.78,-35.35l-495.17 634.47c-134.13,65.54 -252.73,104.01 -355.74,118.6 -101.89,13.53 -192.37,20.77 -271.44,20.77 -65.53,0 -136.3,-7.24 -212.19,-20.77 -77.01,-13.53 -147.72,-43.71 -212.2,-90.48 -65.53,-46.83 -119.6,-112.36 -163.31,-198.72 -43.71,-86.31 -66.59,-200.73 -66.59,-345.33 0,-107.13 9.35,-201.78 28.12,-286.03 18.7,-83.18 39.47,-176.84 62.36,-278.79l292.32 -1330.3c4.17,-28.12 11.41,-62.42 20.76,-104.01 9.36,-41.65 18.77,-88.42 28.13,-139.43 9.35,-50.94 17.64,-100.83 23.88,-149.78 7.29,-48.88 10.41,-93.59 10.41,-136.24 0,-92.6 -22.88,-170.55 -69.71,-232.97 -46.77,-62.42 -83.18,-108.19 -111.25,-136.31l891.38 0 0 1.06zm634.53 3351.38l1727.7 0c-22.89,-28.06 -48.89,-71.77 -77.01,-132.13 -28.06,-60.3 -41.59,-141.42 -41.59,-243.37 0,-46.83 4.18,-100.9 13.53,-163.31 9.35,-62.42 19.77,-127.96 31.18,-195.55 11.41,-67.6 22.88,-130.01 34.36,-188.26 11.41,-58.24 21.82,-108.18 31.17,-149.77l160.2 -772.84c50.94,-237.14 119.6,-426.46 205.96,-567.88 86.3,-141.48 221.55,-212.2 407.68,-212.2 18.77,0 45.77,2.06 80.13,7.24 35.35,4.18 68.65,17.71 100.89,38.47 32.24,20.83 61.36,52.07 87.36,93.66 26,41.59 38.48,101.89 38.48,180.96 0,28.06 -2.06,58.24 -7.3,90.48 -4.12,32.23 -11.41,60.36 -20.77,83.24l-243.37 1073.4c-22.95,97.77 -43.71,182.07 -62.42,253.79 -18.77,71.77 -28.12,147.72 -28.12,226.78 0,69.71 10.41,145.6 31.24,226.73 20.76,81.18 59.3,153.95 115.42,219.49 56.18,65.54 132.13,119.6 229.91,163.31 97.77,43.65 222.55,66.59 376.5,66.59 134.19,0 250.67,-13.53 348.45,-41.65 97.77,-28.06 183.07,-60.3 257.96,-97.77l495.11 -640.71c-37.42,13.53 -87.36,28.06 -149.78,41.59 -62.42,13.53 -121.72,20.83 -177.84,20.83 -97.77,0 -159.13,-26 -184.14,-77.01 -26,-50.94 -38.47,-99.83 -38.47,-146.66 0,-13.47 1.06,-42.65 3.12,-87.36 2.06,-43.65 14.59,-110.25 38.47,-198.67l209.08 -954.85c37.47,-158.13 59.3,-277.73 66.6,-358.86 7.23,-81.13 10.35,-140.42 10.35,-177.84 0,-125.89 -23.89,-238.2 -72.77,-338.09 -48.89,-99.83 -116.48,-187.2 -201.79,-261.03 -86.36,-73.89 -186.19,-131.07 -299.61,-170.6 -113.37,-39.53 -236.08,-59.3 -366.1,-59.3 -37.47,0 -89.48,3.12 -157.07,10.41 -67.6,7.3 -146.66,27.06 -237.14,59.3 -90.54,32.24 -188.25,82.13 -292.32,149.78 -104.01,67.6 -210.08,161.19 -317.21,281.85l125.84 -542.93c-92.6,46.83 -183.08,81.12 -271.5,104.01 -88.42,22.88 -180.96,34.35 -278.73,34.35l-1009.98 -0.06c83.24,79.07 136.31,149.78 157.07,212.2 20.83,62.42 31.24,114.42 31.24,157.08 0,41.59 -4.18,103 -13.53,185.13 -9.35,81.13 -32.24,196.61 -69.71,345.33l-313.09 1379.25c-37.42,176.84 -87.36,363.03 -149.78,560.64 -65.54,197.66 -175.78,368.21 -333.86,512.81l0 0zm6270.01 34.3c-50.94,13.53 -110.24,28.12 -177.84,41.65 -67.59,13.53 -147.72,20.77 -240.26,20.77 -152.89,0 -301.67,-22.89 -446.21,-69.66 -143.61,-46.82 -272.56,-118.6 -386.98,-216.37 -113.37,-97.77 -204.9,-225.73 -271.5,-382.8 -67.59,-158.08 -100.89,-348.45 -100.89,-571.06 0,-139.36 13.53,-286.02 41.65,-438.92 28.06,-152.9 71.77,-306.85 132.07,-459.75 60.36,-152.9 140.43,-302.68 240.32,-449.34 99.83,-146.66 219.43,-281.91 358.86,-407.74 83.18,-73.83 175.78,-145.6 275.61,-212.2 99.83,-67.59 213.26,-125.83 341.15,-173.66 127.95,-48.95 269.44,-88.42 425.45,-118.6 156.02,-30.18 330.74,-45.77 526.29,-45.77 97.77,0 189.31,4.18 275.67,13.53 86.3,9.35 168.49,18.71 247.56,28.06 97.77,9.36 183.07,18.71 257.9,28.06 73.89,9.36 148.78,13.53 222.61,13.53 92.6,0 192.43,-8.29 299.56,-23.88 107.19,-16.65 220.55,-57.24 341.21,-121.72l-522.17 2382.99c-9.35,41.6 -19.77,88.42 -31.18,139.37 -11.47,50.95 -17.71,101.95 -17.71,152.9 0,60.3 16.65,111.3 48.89,152.89 32.24,41.6 95.72,62.42 188.25,62.42 51.01,0 104.01,-6.23 160.2,-17.71 56.18,-11.41 109.24,-27 160.19,-45.71l-495.11 640.71c-107.13,56.18 -210.08,92.6 -309.97,111.31 -99.83,18.7 -196.61,28.06 -289.14,28.06 -51.01,0 -119.66,-4.18 -205.96,-13.53 -86.37,-9.36 -169.55,-37.42 -250.68,-83.19 -81.12,-46.83 -150.83,-117.54 -209.07,-212.19 -58.25,-95.72 -87.37,-228.85 -87.37,-400.45 0,-32.24 2.06,-62.42 7.24,-90.48 4.18,-28.12 10.41,-60.36 17.71,-97.78 7.29,-37.47 16.65,-81.18 28.06,-132.13 11.47,-50.94 27.06,-116.48 45.77,-195.55l355.74 -1581.03c-37.48,-22.88 -86.3,-47.83 -146.66,-72.77 -60.3,-26.06 -125.9,-38.53 -195.55,-38.53 -125.84,0 -246.5,49.94 -361.98,149.83 -116.48,99.84 -217.37,227.79 -302.67,382.75 -86.3,156.01 -153.96,329.73 -205.96,522.16 -50.95,192.43 -76.95,381.75 -76.95,567.94 0,218.43 58.24,375.45 173.66,470.1 116.48,95.72 252.79,142.55 410.86,142.55 22.89,0 42.66,-1.06 59.3,-3.12 16.65,-2.12 31.18,-6.24 45.77,-10.41l-355.74 634.47z"/>
   <path class="fil2" d="M23187.46 16918.01c988.15,2095.9 3075.7,3359.67 5444.16,3359.67 3000.82,0 5788.44,-2015.84 6773.47,-4798.22 -1169.17,3403.38 -4331.23,5688.6 -7735.62,5688.6 -2686.72,0 -5054.13,-1433.32 -6239.89,-3789.3l443.1 -696.89 1314.78 236.14 0 0zm16211.78 -6012.11c79.06,0 172.66,-11.41 281.91,-35.35 109.18,-22.89 196.6,-56.18 261.08,-97.78l-857.08 3880.78c-22.89,92.6 -37.48,161.26 -41.65,205.97 -4.12,43.71 -7.24,72.83 -7.24,87.42 0,50.94 9.35,90.47 28.06,118.54 18.71,28.12 39.54,48.88 62.42,62.41 22.88,13.53 48.89,22.89 76.95,28.12 28.06,4.12 53.06,7.24 77.01,7.24 37.41,0 82.12,-3.12 136.24,-10.35 53.01,-7.3 121.72,-23.95 205.97,-52.07l-501.41 640.77c-125.83,65.54 -239.19,104.01 -341.15,118.6 -101.95,13.47 -186.19,20.77 -250.67,20.77 -162.25,0 -292.26,-20.77 -390.03,-62.42 -97.78,-41.59 -172.67,-95.72 -226.79,-160.19 -53.01,-65.54 -88.42,-136.25 -104.01,-212.2 -16.65,-76.95 -23.88,-149.78 -23.88,-219.43 0,-83.25 8.29,-166.43 23.88,-247.56 16.65,-81.18 38.47,-189.31 66.59,-323.5l341.15 -1567.5c-69.65,-56.18 -132.07,-90.48 -188.25,-104.01 -56.18,-13.53 -101.95,-20.77 -139.36,-20.77 -125.9,0 -243.38,49.89 -355.74,149.78 -111.31,99.84 -209.08,227.79 -292.27,382.74 -83.24,156.02 -148.78,330.8 -195.55,526.35 -46.82,195.55 -69.71,385.86 -69.71,571.05 0,50.95 4.18,110.25 13.53,177.84 9.36,67.6 32.24,133.13 69.66,198.67 37.47,65.54 90.53,119.6 160.19,163.31 69.71,43.71 167.48,66.59 292.32,66.59 28.06,0 50.95,-1.05 69.65,-3.11 18.77,-2.12 37.48,-6.24 56.19,-10.42l-369.28 648.01c-135.18,32.24 -276.67,48.88 -425.39,48.88 -60.3,0 -157.07,-9.35 -289.14,-28.06 -132.13,-18.71 -265.26,-68.65 -397.34,-149.78 -132.13,-81.12 -248.61,-207.02 -348.5,-376.56 -99.83,-169.55 -149.78,-405.63 -149.78,-707.3 0,-329.74 67.6,-650.07 201.79,-961.1 134.18,-311.03 325.61,-578.35 571.05,-800.9 241.32,-218.43 481.63,-359.91 720.83,-425.45 239.26,-64.48 479.52,-97.77 720.84,-97.77 92.59,0 169.54,2.06 229.84,7.29 60.36,4.18 150.84,18.71 271.5,41.59l132.13 -578.29c37.41,-148.77 59.3,-257.96 66.53,-327.67 7.3,-69.66 10.42,-116.49 10.42,-139.37 0,-60.3 -9.36,-127.95 -28.06,-201.78 -18.71,-73.89 -71.78,-150.84 -160.2,-229.91l1004.75 -0.06 0 -2.06zm-9238.59 4911.59l355.74 -634.47c-13.53,4.17 -29.12,8.35 -45.77,10.41 -16.65,2.06 -36.41,3.12 -59.3,3.12 -158.13,0 -295.38,-47.83 -410.86,-142.49 -116.48,-95.71 -173.72,-251.73 -173.72,-470.16 0,-186.19 26,-375.51 77,-567.94 50.95,-192.43 119.6,-367.15 205.96,-522.16 86.31,-156.02 187.2,-282.91 302.68,-382.75 116.48,-99.89 237.14,-149.77 361.98,-149.77 69.71,0 134.19,12.47 195.54,38.47 60.3,26 109.19,49.89 146.66,72.77l-355.73 1581.03c-18.71,79.07 -33.3,143.61 -45.77,195.55 -11.42,51.01 -20.77,95.72 -28.07,132.13 -7.29,37.48 -12.53,69.72 -17.7,97.78 -4.18,28.06 -7.3,58.24 -7.3,90.48 0,171.6 29.18,305.79 87.42,400.45 58.24,95.71 127.9,166.42 209.08,212.19 81.13,46.83 165.37,73.83 250.67,83.19 86.3,9.35 153.9,13.53 205.96,13.53 92.54,0 189.26,-9.36 289.15,-28.06 99.83,-18.71 202.84,-56.19 309.97,-111.31l495.1 -640.71c-51,18.71 -104.01,33.3 -160.19,45.77 -56.18,11.42 -109.24,17.65 -160.19,17.65 -92.6,0 -156.01,-20.77 -188.25,-62.42 -32.24,-41.59 -48.89,-92.53 -48.89,-152.89 0,-50.95 6.24,-101.9 17.65,-152.9 11.47,-50.95 21.88,-97.77 31.24,-139.37l522.17 -2382.99c-120.66,64.48 -235.09,106.13 -341.21,121.72 -107.13,16.65 -206.96,23.88 -299.56,23.88 -73.83,0 -148.72,-4.11 -222.61,-13.47 -73.83,-9.35 -160.19,-18.76 -257.97,-28.12 -79,-9.35 -161.19,-18.71 -247.55,-28.06 -86.3,-9.35 -177.84,-13.53 -275.61,-13.53 -195.55,0 -370.27,15.59 -526.29,45.77 -156.07,30.18 -297.5,69.71 -425.45,118.6 -127.96,48.89 -241.32,107.13 -341.15,173.66 -99.89,67.66 -191.43,138.37 -275.68,212.2 -139.36,125.89 -258.96,261.08 -358.85,407.74 -99.84,146.66 -179.9,296.44 -240.26,449.34 -60.3,152.9 -104.01,306.85 -132.07,459.75 -28.12,152.9 -41.65,299.56 -41.65,438.98 0,222.55 33.29,412.92 100.89,571.06 67.59,158.07 158.13,286.02 271.49,382.74 113.37,97.77 242.38,169.55 386.92,216.37 143.55,46.83 292.33,69.72 446.28,69.72 92.54,0 172.67,-7.3 240.26,-20.83 67.59,-13.53 126.84,-28.12 177.84,-41.65l0 0zm-2521.36 -201.78l522.17 -940.27c-190.37,120.66 -363.03,213.2 -519.05,278.73 -156.01,65.54 -292.26,113.42 -410.86,146.66 -118.54,32.24 -217.38,51.01 -296.44,56.18 -79.07,4.18 -137.31,7.3 -173.67,7.3 -186.19,0 -343.26,-28.06 -473.28,-83.19 -130.01,-56.18 -239.25,-129.01 -327.67,-219.49 -88.42,-90.48 -157.02,-190.37 -205.97,-299.55 -48.88,-109.25 -84.24,-216.38 -108.12,-320.39 -22.89,-104.01 -38.48,-200.72 -45.77,-289.14 -7.3,-88.42 -10.42,-156.02 -10.42,-201.79 0,-348.5 46.83,-659.47 139.37,-933.03 92.6,-273.55 216.37,-506.57 369.27,-696.89 152.9,-190.37 329.74,-337.03 529.46,-438.98 199.67,-101.89 403.57,-152.9 612.65,-152.9 32.24,0 87.36,3.12 163.31,10.42 76.95,7.29 163.25,27.06 261.02,59.3 97.78,32.23 199.73,82.18 306.86,149.77 107.18,67.6 207.02,163.31 299.56,289.15l118.6 -1030.8c-231.97,-79.01 -446.22,-131.02 -640.71,-157.02 -195.55,-26 -378.63,-38.47 -550.23,-38.47 -348.45,0 -697.95,47.82 -1048.51,142.48 -350.51,95.72 -681.3,279.79 -992.27,554.41 -162.31,143.54 -305.8,306.85 -428.57,487.81 -122.72,180.96 -225.73,372.39 -306.86,575.17 -81.12,201.84 -141.42,408.8 -180.96,619.94 -39.53,211.14 -59.3,419.22 -59.3,623.06 0,260.03 39.54,514.87 118.6,762.43 79.01,248.61 203.85,469.1 376.51,661.53 171.66,192.43 396.33,348.44 671.95,467.04 276.67,118.6 614.76,177.84 1014.15,177.84 195.55,0 399.45,-17.64 612.65,-52 214.25,-37.42 434.75,-108.19 662.53,-215.31z"/>
  </g>
 </g>
</svg>
