<?xml version="1.0" encoding="UTF-8"?>
<!DOCTYPE svg PUBLIC "-//W3C//DTD SVG 1.1//EN" "http://www.w3.org/Graphics/SVG/1.1/DTD/svg11.dtd">
<!-- Creator: CorelDRAW 2020 (64-Bit) -->
<svg xmlns="http://www.w3.org/2000/svg" xml:space="preserve" width="476.98mm" height="273.725mm" version="1.1" style="shape-rendering:geometricPrecision; text-rendering:geometricPrecision; image-rendering:optimizeQuality; fill-rule:evenodd; clip-rule:evenodd"
viewBox="0 0 47697.98 27372.51"
 xmlns:xlink="http://www.w3.org/1999/xlink"
 xmlns:xodm="http://www.corel.com/coreldraw/odm/2003">
 <defs>
  <style type="text/css">
   <![CDATA[
    .str0 {stroke:#E0E0E0;stroke-width:631.73;stroke-miterlimit:22.9256}
    .fil0 {fill:white}
    .fil1 {fill:#1434CB;fill-rule:nonzero}
   ]]>
  </style>
 </defs>
 <g id="Layer_x0020_1">
  <metadata id="CorelCorpID_0Corel-Layer"/>
  <g id="_2631525158448">
   <path class="fil0 str0" d="M1353.94 315.87l45010.86 0c560.56,0 1017.31,456.75 1017.31,1038.07l0 24706.15c0,560.56 -456.75,996.55 -1017.31,996.55l-45010.86 0c-581.32,0 -1038.07,-435.99 -1038.07,-996.55l0 -24706.14c0,-581.32 456.75,-1038.07 1038.07,-1038.07l0 -0.01z"/>
   <path class="fil1" d="M19552.1 8321.41l-3955.91 9438.41 -2580.98 0 -1946.72 -7532.29c-118.21,-463.93 -220.94,-633.93 -580.41,-829.42 -586.83,-318.33 -1555.95,-617.06 -2408.65,-802.42l57.91 -274.34 4154.57 0.06c529.59,0 1005.66,352.46 1125.87,962.33l1028.1 5461.52 2541 -6424.02 2565.22 0 0 0.17zm10112.66 6356.86c10.35,-2491.1 -3444.65,-2628.36 -3420.87,-3741.14 7.4,-338.65 329.85,-698.74 1035.66,-790.67 349.85,-45.77 1313.79,-80.74 2407.09,422.39l428.85 -2001.5c-587.49,-213.2 -1343.36,-418.44 -2283.86,-418.44 -2413.32,0 -4111.7,1282.94 -4126.01,3119.97 -15.6,1358.78 1212.23,2116.98 2137.31,2568.5 951.64,462.38 1270.97,759.54 1267.3,1173.09 -6.74,633.14 -758.99,912.66 -1462.02,923.63 -1227.21,18.93 -1939.31,-332.02 -2506.98,-595.95l-442.55 2067.71c570.45,261.76 1623.49,490.1 2715.17,501.57 2565.11,0 4243,-1267.02 4250.91,-3229.16l0 0zm6372.73 3081.55l2258.2 0 -1971.16 -9438.41 -2084.25 0c-468.72,0 -864,272.89 -1039.01,692.44l-3663.86 8745.97 2563.83 0 508.93 -1409.78 3132.55 0 294.77 1409.78zm-2724.35 -3344.25l1285.11 -3543.76 739.67 3543.76 -2024.78 0zm-10272.47 -6094.16l-2018.99 9438.41 -2441.55 0 2019.77 -9438.41 2440.77 0z"/>
  </g>
 </g>
</svg>
