<?xml version="1.0" encoding="UTF-8"?>
<!DOCTYPE svg PUBLIC "-//W3C//DTD SVG 1.1//EN" "http://www.w3.org/Graphics/SVG/1.1/DTD/svg11.dtd">
<!-- Creator: CorelDRAW X8 -->
<svg xmlns="http://www.w3.org/2000/svg" xml:space="preserve" width="1803px" height="1035px" version="1.1" style="shape-rendering:geometricPrecision; text-rendering:geometricPrecision; image-rendering:optimizeQuality; fill-rule:evenodd; clip-rule:evenodd"
viewBox="0 0 2303 1322"
 xmlns:xlink="http://www.w3.org/1999/xlink">
 <defs>
  <style type="text/css">
   <![CDATA[
    .str0 {stroke:#E0E0E0;stroke-width:30.1745}
    .fil1 {fill:#0098DA}
    .fil0 {fill:white}
   ]]>
  </style>
 </defs>
 <g id="Layer_x0020_1">
  <metadata id="CorelCorpID_0Corel-Layer"/>
  <g id="_2287155780144">
   <path class="fil0 str0" d="M65 15l2174 0c27,0 49,22 49,49l0 1194c0,27 -22,49 -49,49l-2174 0c-27,0 -50,-22 -50,-49l0 -1194c0,-27 23,-49 50,-49z"/>
   <g>
    <polygon class="fil1" points="812,846 812,800 648,800 648,1002 812,1002 812,956 695,956 695,924 812,924 812,878 695,878 695,846 "/>
    <polygon class="fil1" points="976,1002 1046,1002 960,901 1046,800 976,800 929,862 882,800 820,800 898,901 820,1002 882,1002 929,940 "/>
    <path class="fil1" d="M1061 800l0 202 55 0 0 -70 62 0c47,0 70,-23 70,-62 0,-47 -23,-70 -70,-70l-117 0zm133 62c0,0 0,0 0,0 0,16 -8,23 -16,23 -8,0 -8,0 -8,0l-54 0 0 -39 54 0c0,0 8,0 8,0 8,0 16,8 16,16 0,8 0,8 0,0z"/>
    <path class="fil1" d="M1311 932l15 0 63 70 70 0 -70 -78c31,0 54,-31 54,-62 0,0 0,0 0,0 0,-39 -31,-62 -70,-62l-117 0 0 202 55 0 0 -70 0 0 0 0zm54 -86c0,0 0,0 0,0 16,0 24,8 24,16 0,0 0,0 0,0 0,16 -8,23 -24,23l-54 0 0 -39 54 0z"/>
    <polygon class="fil1" points="1631,846 1631,800 1467,800 1467,1002 1631,1002 1631,956 1514,956 1514,924 1631,924 1631,878 1514,878 1514,846 "/>
    <path class="fil1" d="M1802 628l63 0 0 -211 -55 0 0 133 -78 -133 -70 0 0 211 54 0 0 -133 86 133zm-296 -86l31 -70 31 70 -62 0 0 0zm93 86l63 0 -94 -211 -62 0 -94 211 63 0 15 -47 94 0 15 47zm-210 0l0 0 23 -47 -15 0c-32,0 -55,-23 -55,-54l0 -8c0,-31 23,-55 55,-55l54 0 0 -47 -62 0c-63,0 -94,47 -94,102l0 8c0,62 31,101 94,101l0 0zm-172 0l47 0 0 -211 -47 0 0 211zm-101 -164c15,0 23,16 23,24 0,15 -8,23 -23,23l-55 0 0 -47 55 0zm-55 86l24 0 54 78 70 0 -70 -78c31,-8 55,-31 55,-62 0,-32 -31,-71 -70,-71l-117 0 0 211 54 0 0 -78zm-85 -86l0 -47 -164 0 0 211 164 0 0 -47 -110 0 0 -39 110 0 0 -39 -110 0 0 -39 110 0 0 0zm-351 164l46 0 55 -156 0 156 47 0 0 -211 -78 0 -47 133 -47 -133 -86 0 0 211 55 0 0 -156 55 156zm-266 -86l32 -70 31 70 -63 0 0 0zm94 86l62 0 -93 -211 -63 0 -93 211 62 0 16 -47 93 0 16 47z"/>
    <path class="fil1" d="M1755 878c47,0 71,15 71,62 0,39 -32,62 -71,62l-109 0 0 -46 109 0c8,0 16,-8 16,-16l0 0c0,-8 -8,-16 -16,-16 0,0 0,0 0,0l-54 0c-39,0 -63,-23 -63,-62 0,-39 32,-62 71,-62l109 0 -16 46 -93 0c0,0 0,0 0,0 -8,0 -16,8 -16,16l0 0 0 0c0,8 8,16 16,16 0,0 0,0 0,0l46 0z"/>
    <path class="fil1" d="M1942 878c39,0 63,15 63,62 0,39 -24,62 -70,62l-109 0 0 -46 109 0c7,0 15,-8 15,-16l0 0c0,-8 -8,-16 -15,-16 0,0 0,0 0,0l-47 0c-39,0 -70,-23 -70,-62 0,-39 31,-62 78,-62l109 0 -24 46 -85 0c-8,0 -8,0 -8,0 -8,0 -16,8 -16,16l0 0 0 0c0,8 8,16 16,16 0,0 0,0 8,0l46 0 0 0z"/>
   </g>
  </g>
 </g>
</svg>
