<?xml version="1.0" encoding="UTF-8"?>
<!DOCTYPE svg PUBLIC "-//W3C//DTD SVG 1.1//EN" "http://www.w3.org/Graphics/SVG/1.1/DTD/svg11.dtd">
<!-- Creator: CorelDRAW 2018 (64-Bit) -->
<svg xmlns="http://www.w3.org/2000/svg" xml:space="preserve" width="888px" height="856px" version="1.1" style="shape-rendering:geometricPrecision; text-rendering:geometricPrecision; image-rendering:optimizeQuality; fill-rule:evenodd; clip-rule:evenodd"
viewBox="0 0 92.79 89.47"
 xmlns:xlink="http://www.w3.org/1999/xlink">
 <defs>
  <style type="text/css">
   <![CDATA[
    .str1 {stroke:#373435;stroke-width:0.22;stroke-miterlimit:22.9256}
    .str0 {stroke:#C81912;stroke-width:0.22;stroke-miterlimit:22.9256}
    .fil1 {fill:#373435}
    .fil0 {fill:#C81912}
    .fil2 {fill:#C81912;fill-rule:nonzero}
   ]]>
  </style>
 </defs>
 <g id="Layer_x0020_1">
  <metadata id="CorelCorpID_0Corel-Layer"/>
  <g id="_2237582712368">
   <path class="fil0 str0" d="M41.74 68.41l0 3.3c-23.42,-2.01 -41.63,-17.27 -41.63,-35.8 0,-18.52 18.21,-33.78 41.63,-35.79l0 3.29c-21.06,2 -37.37,15.79 -37.37,32.5 0,16.72 16.31,30.51 37.37,32.5z"/>
   <path class="fil1 str1" d="M51.05 68.41l0 3.3c23.42,-2.01 41.63,-17.27 41.63,-35.8 0,-18.52 -18.21,-33.78 -41.63,-35.79l0 3.29c21.06,2 37.37,15.79 37.37,32.5 0,16.72 -16.31,30.51 -37.37,32.5z"/>
  </g>
  <g id="_2237582714640">
   <polygon class="fil0 str0" points="50.94,58.99 30.51,16.37 30.51,58.94 38.62,58.94 38.62,42.45 46.45,58.99 "/>
   <polygon class="fil0 str0" points="58.06,59.13 34.94,11.25 30.37,11.25 53.36,59.01 "/>
   <path class="fil0 str0" d="M45.63 19.07c13.75,-0.49 16.68,10.25 7.79,16.15l-7.79 -16.15zm19.27 39.94l-8.49 -17.61c15.47,-11.25 9.91,-30.52 -14.94,-30.15l-4.25 0 23 47.76 4.25 0 0.43 0z"/>
  </g>
  <path class="fil2" d="M9.34 76.31c0,0.64 -0.37,0.97 -1.1,0.97 -0.73,0 -1.1,-0.33 -1.1,-0.97 0,-0.65 0.37,-0.98 1.1,-0.98 0.73,0 1.1,0.33 1.1,0.98zm2.29 2.07c0,0.62 -0.35,0.93 -1.04,0.93 -0.7,0 -1.05,-0.31 -1.05,-0.93 0,-0.61 0.35,-0.92 1.05,-0.92 0.69,0 1.04,0.31 1.04,0.92zm-4.64 -2.07c0,0.64 -0.36,0.97 -1.09,0.97 -0.74,0 -1.1,-0.33 -1.1,-0.97 0,-0.65 0.36,-0.98 1.1,-0.98 0.73,0 1.09,0.33 1.09,0.98zm4.58 4.15c0,0.59 -0.33,0.88 -0.98,0.88 -0.66,0 -0.99,-0.29 -0.99,-0.88 0,-0.58 0.33,-0.87 0.99,-0.87 0.65,0 0.98,0.29 0.98,0.87zm-6.92 -4.15c0,0.64 -0.37,0.97 -1.1,0.97 -0.73,0 -1.1,-0.33 -1.1,-0.97 0,-0.65 0.37,-0.98 1.1,-0.98 0.73,0 1.1,0.33 1.1,0.98zm-2.35 0c0,0.64 -0.36,0.97 -1.09,0.97 -0.74,0 -1.1,-0.33 -1.1,-0.97 0,-0.65 0.36,-0.98 1.1,-0.98 0.73,0 1.09,0.33 1.09,0.98zm6.87 6.23c0,0.55 -0.31,0.83 -0.93,0.83 -0.62,0 -0.93,-0.28 -0.93,-0.83 0,-0.55 0.31,-0.82 0.93,-0.82 0.62,0 0.93,0.27 0.93,0.82zm-6.92 -4.16c0,0.62 -0.35,0.93 -1.04,0.93 -0.7,0 -1.05,-0.31 -1.05,-0.93 0,-0.61 0.35,-0.92 1.05,-0.92 0.69,0 1.04,0.31 1.04,0.92zm4.58 4.16c0,0.55 -0.31,0.83 -0.93,0.83 -0.62,0 -0.93,-0.28 -0.93,-0.83 0,-0.55 0.31,-0.82 0.93,-0.82 0.62,0 0.93,0.27 0.93,0.82zm-4.64 -2.08c0,0.59 -0.33,0.88 -0.98,0.88 -0.66,0 -0.99,-0.29 -0.99,-0.88 0,-0.58 0.33,-0.87 0.99,-0.87 0.65,0 0.98,0.29 0.98,0.87zm2.29 2.08c0,0.55 -0.31,0.83 -0.93,0.83 -0.62,0 -0.93,-0.28 -0.93,-0.83 0,-0.55 0.31,-0.82 0.93,-0.82 0.62,0 0.93,0.27 0.93,0.82zm2.29 2.08c0,0.52 -0.29,0.78 -0.87,0.78 -0.59,0 -0.88,-0.26 -0.88,-0.78 0,-0.52 0.29,-0.77 0.88,-0.77 0.58,0 0.87,0.25 0.87,0.77zm2.29 2.08c0,0.48 -0.27,0.73 -0.82,0.73 -0.54,0 -0.82,-0.25 -0.82,-0.73 0,-0.48 0.28,-0.73 0.82,-0.73 0.55,0 0.82,0.25 0.82,0.73zm2.29 2.08c0,0.46 -0.26,0.69 -0.76,0.69 -0.51,0 -0.77,-0.23 -0.77,-0.69 0,-0.45 0.26,-0.68 0.77,-0.68 0.5,0 0.76,0.23 0.76,0.68zm-9.21 -6.24c0,0.55 -0.31,0.83 -0.93,0.83 -0.62,0 -0.93,-0.28 -0.93,-0.83 0,-0.55 0.31,-0.82 0.93,-0.82 0.62,0 0.93,0.27 0.93,0.82zm-0.06 2.08c0,0.52 -0.29,0.78 -0.87,0.78 -0.59,0 -0.88,-0.26 -0.88,-0.78 0,-0.52 0.29,-0.77 0.88,-0.77 0.58,0 0.87,0.25 0.87,0.77zm-0.05 2.08c0,0.48 -0.28,0.73 -0.82,0.73 -0.55,0 -0.82,-0.25 -0.82,-0.73 0,-0.48 0.27,-0.73 0.82,-0.73 0.54,0 0.82,0.25 0.82,0.73zm-0.06 2.08c0,0.46 -0.25,0.69 -0.76,0.69 -0.51,0 -0.77,-0.23 -0.77,-0.69 0,-0.45 0.26,-0.68 0.77,-0.68 0.51,0 0.76,0.23 0.76,0.68zm23.23 -12.47c0,0.64 -0.36,0.97 -1.09,0.97 -0.74,0 -1.1,-0.33 -1.1,-0.97 0,-0.65 0.36,-0.98 1.1,-0.98 0.73,0 1.09,0.33 1.09,0.98zm-2.34 0c0,0.64 -0.37,0.97 -1.1,0.97 -0.73,0 -1.1,-0.33 -1.1,-0.97 0,-0.65 0.37,-0.98 1.1,-0.98 0.73,0 1.1,0.33 1.1,0.98zm-2.35 0c0,0.64 -0.36,0.97 -1.09,0.97 -0.74,0 -1.1,-0.33 -1.1,-0.97 0,-0.65 0.36,-0.98 1.1,-0.98 0.73,0 1.09,0.33 1.09,0.98zm-2.34 0c0,0.64 -0.37,0.97 -1.1,0.97 -0.73,0 -1.1,-0.33 -1.1,-0.97 0,-0.65 0.37,-0.98 1.1,-0.98 0.73,0 1.1,0.33 1.1,0.98zm6.87 6.23c0,0.55 -0.31,0.83 -0.93,0.83 -0.62,0 -0.94,-0.28 -0.94,-0.83 0,-0.55 0.32,-0.82 0.94,-0.82 0.62,0 0.93,0.27 0.93,0.82zm-9.22 -6.23c0,0.64 -0.36,0.97 -1.09,0.97 -0.74,0 -1.1,-0.33 -1.1,-0.97 0,-0.65 0.36,-0.98 1.1,-0.98 0.73,0 1.09,0.33 1.09,0.98zm6.87 6.23c0,0.55 -0.31,0.83 -0.93,0.83 -0.62,0 -0.93,-0.28 -0.93,-0.83 0,-0.55 0.31,-0.82 0.93,-0.82 0.62,0 0.93,0.27 0.93,0.82zm-6.92 -4.16c0,0.62 -0.35,0.93 -1.04,0.93 -0.7,0 -1.05,-0.31 -1.05,-0.93 0,-0.61 0.35,-0.92 1.05,-0.92 0.69,0 1.04,0.31 1.04,0.92zm4.58 4.16c0,0.55 -0.31,0.83 -0.93,0.83 -0.62,0 -0.93,-0.28 -0.93,-0.83 0,-0.55 0.31,-0.82 0.93,-0.82 0.62,0 0.93,0.27 0.93,0.82zm-4.64 -2.08c0,0.59 -0.33,0.88 -0.98,0.88 -0.66,0 -0.99,-0.29 -0.99,-0.88 0,-0.58 0.33,-0.87 0.99,-0.87 0.65,0 0.98,0.29 0.98,0.87zm2.29 2.08c0,0.55 -0.31,0.83 -0.93,0.83 -0.62,0 -0.93,-0.28 -0.93,-0.83 0,-0.55 0.31,-0.82 0.93,-0.82 0.62,0 0.93,0.27 0.93,0.82zm6.87 6.24c0,0.46 -0.26,0.69 -0.76,0.69 -0.51,0 -0.77,-0.23 -0.77,-0.69 0,-0.45 0.26,-0.68 0.77,-0.68 0.5,0 0.76,0.23 0.76,0.68zm-9.21 -6.24c0,0.55 -0.31,0.83 -0.93,0.83 -0.62,0 -0.93,-0.28 -0.93,-0.83 0,-0.55 0.31,-0.82 0.93,-0.82 0.62,0 0.93,0.27 0.93,0.82zm6.86 6.24c0,0.46 -0.25,0.69 -0.76,0.69 -0.51,0 -0.76,-0.23 -0.76,-0.69 0,-0.45 0.25,-0.68 0.76,-0.68 0.51,0 0.76,0.23 0.76,0.68zm-6.92 -4.16c0,0.52 -0.29,0.78 -0.87,0.78 -0.59,0 -0.88,-0.26 -0.88,-0.78 0,-0.52 0.29,-0.77 0.88,-0.77 0.58,0 0.87,0.25 0.87,0.77zm4.58 4.16c0,0.46 -0.26,0.69 -0.76,0.69 -0.51,0 -0.77,-0.23 -0.77,-0.69 0,-0.45 0.26,-0.68 0.77,-0.68 0.5,0 0.76,0.23 0.76,0.68zm-4.64 -2.08c0,0.48 -0.27,0.73 -0.81,0.73 -0.55,0 -0.82,-0.25 -0.82,-0.73 0,-0.48 0.27,-0.73 0.82,-0.73 0.54,0 0.81,0.25 0.81,0.73zm2.29 2.08c0,0.46 -0.25,0.69 -0.76,0.69 -0.51,0 -0.76,-0.23 -0.76,-0.69 0,-0.45 0.25,-0.68 0.76,-0.68 0.51,0 0.76,0.23 0.76,0.68zm-2.34 0c0,0.46 -0.26,0.69 -0.76,0.69 -0.51,0 -0.77,-0.23 -0.77,-0.69 0,-0.45 0.26,-0.68 0.77,-0.68 0.5,0 0.76,0.23 0.76,0.68zm20.89 -12.47c0,0.64 -0.37,0.97 -1.1,0.97 -0.73,0 -1.1,-0.33 -1.1,-0.97 0,-0.65 0.37,-0.98 1.1,-0.98 0.73,0 1.1,0.33 1.1,0.98zm2.29 2.07c0,0.62 -0.35,0.93 -1.05,0.93 -0.69,0 -1.04,-0.31 -1.04,-0.93 0,-0.61 0.35,-0.92 1.04,-0.92 0.7,0 1.05,0.31 1.05,0.92zm-4.64 -2.07c0,0.64 -0.36,0.97 -1.09,0.97 -0.74,0 -1.1,-0.33 -1.1,-0.97 0,-0.65 0.36,-0.98 1.1,-0.98 0.73,0 1.09,0.33 1.09,0.98zm4.58 4.15c0,0.59 -0.33,0.88 -0.99,0.88 -0.65,0 -0.98,-0.29 -0.98,-0.88 0,-0.58 0.33,-0.87 0.98,-0.87 0.66,0 0.99,0.29 0.99,0.87zm-6.92 -4.15c0,0.64 -0.37,0.97 -1.1,0.97 -0.73,0 -1.1,-0.33 -1.1,-0.97 0,-0.65 0.37,-0.98 1.1,-0.98 0.73,0 1.1,0.33 1.1,0.98zm6.87 6.23c0,0.55 -0.32,0.83 -0.94,0.83 -0.62,0 -0.93,-0.28 -0.93,-0.83 0,-0.55 0.31,-0.82 0.93,-0.82 0.62,0 0.94,0.27 0.94,0.82zm-9.22 -6.23c0,0.64 -0.36,0.97 -1.09,0.97 -0.74,0 -1.1,-0.33 -1.1,-0.97 0,-0.65 0.36,-0.98 1.1,-0.98 0.73,0 1.09,0.33 1.09,0.98zm9.16 8.31c0,0.52 -0.29,0.78 -0.88,0.78 -0.58,0 -0.87,-0.26 -0.87,-0.78 0,-0.52 0.29,-0.77 0.87,-0.77 0.59,0 0.88,0.25 0.88,0.77zm-9.21 -6.24c0,0.62 -0.35,0.93 -1.04,0.93 -0.7,0 -1.05,-0.31 -1.05,-0.93 0,-0.61 0.35,-0.92 1.05,-0.92 0.69,0 1.04,0.31 1.04,0.92zm9.15 8.32c0,0.48 -0.27,0.73 -0.82,0.73 -0.54,0 -0.81,-0.25 -0.81,-0.73 0,-0.48 0.27,-0.73 0.81,-0.73 0.55,0 0.82,0.25 0.82,0.73zm-9.21 -6.24c0,0.59 -0.33,0.88 -0.98,0.88 -0.66,0 -0.99,-0.29 -0.99,-0.88 0,-0.58 0.33,-0.87 0.99,-0.87 0.65,0 0.98,0.29 0.98,0.87zm-0.05 2.08c0,0.55 -0.31,0.83 -0.93,0.83 -0.62,0 -0.93,-0.28 -0.93,-0.83 0,-0.55 0.31,-0.82 0.93,-0.82 0.62,0 0.93,0.27 0.93,0.82zm6.86 6.24c0,0.46 -0.25,0.69 -0.76,0.69 -0.51,0 -0.76,-0.23 -0.76,-0.69 0,-0.45 0.25,-0.68 0.76,-0.68 0.51,0 0.76,0.23 0.76,0.68zm-6.92 -4.16c0,0.52 -0.29,0.78 -0.87,0.78 -0.59,0 -0.88,-0.26 -0.88,-0.78 0,-0.52 0.29,-0.77 0.88,-0.77 0.58,0 0.87,0.25 0.87,0.77zm4.58 4.16c0,0.46 -0.26,0.69 -0.76,0.69 -0.51,0 -0.77,-0.23 -0.77,-0.69 0,-0.45 0.26,-0.68 0.77,-0.68 0.5,0 0.76,0.23 0.76,0.68zm-4.64 -2.08c0,0.48 -0.27,0.73 -0.81,0.73 -0.55,0 -0.82,-0.25 -0.82,-0.73 0,-0.48 0.27,-0.73 0.82,-0.73 0.54,0 0.81,0.25 0.81,0.73zm2.29 2.08c0,0.46 -0.25,0.69 -0.76,0.69 -0.51,0 -0.76,-0.23 -0.76,-0.69 0,-0.45 0.25,-0.68 0.76,-0.68 0.51,0 0.76,0.23 0.76,0.68zm-2.34 0c0,0.46 -0.26,0.69 -0.76,0.69 -0.51,0 -0.77,-0.23 -0.77,-0.69 0,-0.45 0.26,-0.68 0.77,-0.68 0.5,0 0.76,0.23 0.76,0.68zm34.29 -12.47c0,0.64 -0.37,0.97 -1.1,0.97 -0.73,0 -1.1,-0.33 -1.1,-0.97 0,-0.65 0.37,-0.98 1.1,-0.98 0.73,0 1.1,0.33 1.1,0.98zm2.28 2.07c0,0.62 -0.34,0.93 -1.04,0.93 -0.69,0 -1.04,-0.31 -1.04,-0.93 0,-0.61 0.35,-0.92 1.04,-0.92 0.7,0 1.04,0.31 1.04,0.92zm-4.63 -2.07c0,0.64 -0.36,0.97 -1.1,0.97 -0.73,0 -1.09,-0.33 -1.09,-0.97 0,-0.65 0.36,-0.98 1.09,-0.98 0.74,0 1.1,0.33 1.1,0.98zm4.58 4.15c0,0.59 -0.33,0.88 -0.99,0.88 -0.65,0 -0.98,-0.29 -0.98,-0.88 0,-0.58 0.33,-0.87 0.98,-0.87 0.66,0 0.99,0.29 0.99,0.87zm-6.92 -4.15c0,0.64 -0.37,0.97 -1.1,0.97 -0.73,0 -1.1,-0.33 -1.1,-0.97 0,-0.65 0.37,-0.98 1.1,-0.98 0.73,0 1.1,0.33 1.1,0.98zm6.86 6.23c0,0.55 -0.31,0.83 -0.93,0.83 -0.62,0 -0.93,-0.28 -0.93,-0.83 0,-0.55 0.31,-0.82 0.93,-0.82 0.62,0 0.93,0.27 0.93,0.82zm-9.21 -6.23c0,0.64 -0.36,0.97 -1.1,0.97 -0.73,0 -1.09,-0.33 -1.09,-0.97 0,-0.65 0.36,-0.98 1.09,-0.98 0.74,0 1.1,0.33 1.1,0.98zm9.16 8.31c0,0.52 -0.29,0.78 -0.88,0.78 -0.58,0 -0.87,-0.26 -0.87,-0.78 0,-0.52 0.29,-0.77 0.87,-0.77 0.59,0 0.88,0.25 0.88,0.77zm-9.21 -6.24c0,0.62 -0.35,0.93 -1.05,0.93 -0.69,0 -1.04,-0.31 -1.04,-0.93 0,-0.61 0.35,-0.92 1.04,-0.92 0.7,0 1.05,0.31 1.05,0.92zm9.15 8.32c0,0.48 -0.27,0.73 -0.82,0.73 -0.54,0 -0.82,-0.25 -0.82,-0.73 0,-0.48 0.28,-0.73 0.82,-0.73 0.55,0 0.82,0.25 0.82,0.73zm-9.21 -6.24c0,0.59 -0.33,0.88 -0.99,0.88 -0.65,0 -0.98,-0.29 -0.98,-0.88 0,-0.58 0.33,-0.87 0.98,-0.87 0.66,0 0.99,0.29 0.99,0.87zm-0.06 2.08c0,0.55 -0.31,0.83 -0.93,0.83 -0.62,0 -0.93,-0.28 -0.93,-0.83 0,-0.55 0.31,-0.82 0.93,-0.82 0.62,0 0.93,0.27 0.93,0.82zm6.87 6.24c0,0.46 -0.25,0.69 -0.76,0.69 -0.51,0 -0.77,-0.23 -0.77,-0.69 0,-0.45 0.26,-0.68 0.77,-0.68 0.51,0 0.76,0.23 0.76,0.68zm-6.92 -4.16c0,0.52 -0.29,0.78 -0.88,0.78 -0.58,0 -0.87,-0.26 -0.87,-0.78 0,-0.52 0.29,-0.77 0.87,-0.77 0.59,0 0.88,0.25 0.88,0.77zm4.58 4.16c0,0.46 -0.26,0.69 -0.77,0.69 -0.51,0 -0.76,-0.23 -0.76,-0.69 0,-0.45 0.25,-0.68 0.76,-0.68 0.51,0 0.77,0.23 0.77,0.68zm-4.64 -2.08c0,0.48 -0.27,0.73 -0.82,0.73 -0.54,0 -0.82,-0.25 -0.82,-0.73 0,-0.48 0.28,-0.73 0.82,-0.73 0.55,0 0.82,0.25 0.82,0.73zm2.29 2.08c0,0.46 -0.25,0.69 -0.76,0.69 -0.51,0 -0.76,-0.23 -0.76,-0.69 0,-0.45 0.25,-0.68 0.76,-0.68 0.51,0 0.76,0.23 0.76,0.68zm-2.34 0c0,0.46 -0.26,0.69 -0.77,0.69 -0.51,0 -0.76,-0.23 -0.76,-0.69 0,-0.45 0.25,-0.68 0.76,-0.68 0.51,0 0.77,0.23 0.77,0.68zm20.89 -12.47c0,0.64 -0.37,0.97 -1.1,0.97 -0.73,0 -1.1,-0.33 -1.1,-0.97 0,-0.65 0.37,-0.98 1.1,-0.98 0.73,0 1.1,0.33 1.1,0.98zm2.28 2.07c0,0.62 -0.34,0.93 -1.04,0.93 -0.69,0 -1.04,-0.31 -1.04,-0.93 0,-0.61 0.35,-0.92 1.04,-0.92 0.7,0 1.04,0.31 1.04,0.92zm-4.63 -2.07c0,0.64 -0.37,0.97 -1.1,0.97 -0.73,0 -1.1,-0.33 -1.1,-0.97 0,-0.65 0.37,-0.98 1.1,-0.98 0.73,0 1.1,0.33 1.1,0.98zm4.58 4.15c0,0.59 -0.33,0.88 -0.99,0.88 -0.66,0 -0.98,-0.29 -0.98,-0.88 0,-0.58 0.32,-0.87 0.98,-0.87 0.66,0 0.99,0.29 0.99,0.87zm-6.92 -4.15c0,0.64 -0.37,0.97 -1.1,0.97 -0.73,0 -1.1,-0.33 -1.1,-0.97 0,-0.65 0.37,-0.98 1.1,-0.98 0.73,0 1.1,0.33 1.1,0.98zm6.86 6.23c0,0.55 -0.31,0.83 -0.93,0.83 -0.62,0 -0.93,-0.28 -0.93,-0.83 0,-0.55 0.31,-0.82 0.93,-0.82 0.62,0 0.93,0.27 0.93,0.82zm-0.05 2.08c0,0.52 -0.29,0.78 -0.88,0.78 -0.58,0 -0.87,-0.26 -0.87,-0.78 0,-0.52 0.29,-0.77 0.87,-0.77 0.59,0 0.88,0.25 0.88,0.77zm-9.21 -6.24c0,0.62 -0.35,0.93 -1.05,0.93 -0.69,0 -1.04,-0.31 -1.04,-0.93 0,-0.61 0.35,-0.92 1.04,-0.92 0.7,0 1.05,0.31 1.05,0.92zm9.15 8.32c0,0.48 -0.27,0.73 -0.82,0.73 -0.54,0 -0.82,-0.25 -0.82,-0.73 0,-0.48 0.28,-0.73 0.82,-0.73 0.55,0 0.82,0.25 0.82,0.73zm-9.21 -6.24c0,0.59 -0.33,0.88 -0.99,0.88 -0.65,0 -0.98,-0.29 -0.98,-0.88 0,-0.58 0.33,-0.87 0.98,-0.87 0.66,0 0.99,0.29 0.99,0.87zm-0.06 2.08c0,0.55 -0.31,0.83 -0.93,0.83 -0.62,0 -0.93,-0.28 -0.93,-0.83 0,-0.55 0.31,-0.82 0.93,-0.82 0.62,0 0.93,0.27 0.93,0.82zm6.87 6.24c0,0.46 -0.25,0.69 -0.76,0.69 -0.51,0 -0.77,-0.23 -0.77,-0.69 0,-0.45 0.26,-0.68 0.77,-0.68 0.51,0 0.76,0.23 0.76,0.68zm-6.92 -4.16c0,0.52 -0.29,0.78 -0.88,0.78 -0.58,0 -0.87,-0.26 -0.87,-0.78 0,-0.52 0.29,-0.77 0.87,-0.77 0.59,0 0.88,0.25 0.88,0.77zm4.58 4.16c0,0.46 -0.26,0.69 -0.77,0.69 -0.51,0 -0.76,-0.23 -0.76,-0.69 0,-0.45 0.25,-0.68 0.76,-0.68 0.51,0 0.77,0.23 0.77,0.68zm-4.64 -2.08c0,0.48 -0.27,0.73 -0.82,0.73 -0.54,0 -0.82,-0.25 -0.82,-0.73 0,-0.48 0.28,-0.73 0.82,-0.73 0.55,0 0.82,0.25 0.82,0.73zm2.29 2.08c0,0.46 -0.25,0.69 -0.76,0.69 -0.51,0 -0.77,-0.23 -0.77,-0.69 0,-0.45 0.26,-0.68 0.77,-0.68 0.51,0 0.76,0.23 0.76,0.68zm20.89 -12.47c0,0.64 -0.37,0.97 -1.1,0.97 -0.73,0 -1.1,-0.33 -1.1,-0.97 0,-0.65 0.37,-0.98 1.1,-0.98 0.73,0 1.1,0.33 1.1,0.98zm-2.35 0c0,0.64 -0.36,0.97 -1.09,0.97 -0.74,0 -1.1,-0.33 -1.1,-0.97 0,-0.65 0.36,-0.98 1.1,-0.98 0.73,0 1.09,0.33 1.09,0.98zm-2.34 0c0,0.64 -0.37,0.97 -1.1,0.97 -0.73,0 -1.1,-0.33 -1.1,-0.97 0,-0.65 0.37,-0.98 1.1,-0.98 0.73,0 1.1,0.33 1.1,0.98zm-2.35 0c0,0.64 -0.36,0.97 -1.09,0.97 -0.74,0 -1.1,-0.33 -1.1,-0.97 0,-0.65 0.36,-0.98 1.1,-0.98 0.73,0 1.09,0.33 1.09,0.98zm2.29 2.07c0,0.62 -0.34,0.93 -1.04,0.93 -0.69,0 -1.04,-0.31 -1.04,-0.93 0,-0.61 0.35,-0.92 1.04,-0.92 0.7,0 1.04,0.31 1.04,0.92zm-4.63 -2.07c0,0.64 -0.37,0.97 -1.1,0.97 -0.73,0 -1.1,-0.33 -1.1,-0.97 0,-0.65 0.37,-0.98 1.1,-0.98 0.73,0 1.1,0.33 1.1,0.98zm4.58 4.15c0,0.59 -0.33,0.88 -0.99,0.88 -0.66,0 -0.98,-0.29 -0.98,-0.88 0,-0.58 0.32,-0.87 0.98,-0.87 0.66,0 0.99,0.29 0.99,0.87zm-0.06 2.08c0,0.55 -0.31,0.83 -0.93,0.83 -0.62,0 -0.93,-0.28 -0.93,-0.83 0,-0.55 0.31,-0.82 0.93,-0.82 0.62,0 0.93,0.27 0.93,0.82zm-0.05 2.08c0,0.52 -0.3,0.78 -0.88,0.78 -0.58,0 -0.87,-0.26 -0.87,-0.78 0,-0.52 0.29,-0.77 0.87,-0.77 0.58,0 0.88,0.25 0.88,0.77zm-0.06 2.08c0,0.48 -0.27,0.73 -0.82,0.73 -0.54,0 -0.82,-0.25 -0.82,-0.73 0,-0.48 0.28,-0.73 0.82,-0.73 0.55,0 0.82,0.25 0.82,0.73zm-0.06 2.08c0,0.46 -0.25,0.69 -0.76,0.69 -0.51,0 -0.76,-0.23 -0.76,-0.69 0,-0.45 0.25,-0.68 0.76,-0.68 0.51,0 0.76,0.23 0.76,0.68z"/>
 </g>
</svg>
